<svg xmlns="http://www.w3.org/2000/svg" width="16" height="18" viewBox="0 0 16 18"><g><g><g><g><g><path fill="#6e6b6d" d="M14 15.346H2V5.68h12zm-.5-13.262V1.19A1.19 1.19 0 0 0 12.31 0h-.048a1.19 1.19 0 0 0-1.19 1.19v.894H4.928V1.19A1.19 1.19 0 0 0 3.739 0H3.69A1.19 1.19 0 0 0 2.5 1.19v.894H1.19A1.19 1.19 0 0 0 0 3.274v12.763c0 .657.533 1.19 1.19 1.19h13.62a1.19 1.19 0 0 0 1.19-1.19V3.275a1.19 1.19 0 0 0-1.19-1.19z"/></g><g><path fill="#6e6b6d" d="M3.64 10.028h2.027a.186.186 0 0 0 .186-.186V7.815a.186.186 0 0 0-.186-.186H3.64a.186.186 0 0 0-.186.186v2.027c0 .103.083.186.186.186z"/></g><g><path fill="#6e6b6d" d="M6.987 10.028h2.026a.186.186 0 0 0 .187-.186V7.815a.186.186 0 0 0-.187-.186H6.987a.186.186 0 0 0-.186.186v2.027c0 .103.083.186.186.186z"/></g><g><path fill="#6e6b6d" d="M10.333 10.028h2.027a.186.186 0 0 0 .186-.186V7.815a.186.186 0 0 0-.186-.186h-2.027a.186.186 0 0 0-.186.186v2.027c0 .103.083.186.186.186z"/></g><g><path fill="#6e6b6d" d="M3.64 13.373h2.027a.186.186 0 0 0 .186-.186v-2.026a.186.186 0 0 0-.186-.187H3.64a.186.186 0 0 0-.186.187v2.026c0 .103.083.186.186.186z"/></g><g><path fill="#6e6b6d" d="M6.987 13.373h2.026a.186.186 0 0 0 .187-.186v-2.026a.186.186 0 0 0-.187-.187H6.987a.186.186 0 0 0-.186.187v2.026c0 .103.083.186.186.186z"/></g><g><path fill="#6e6b6d" d="M10.333 13.373h2.027a.186.186 0 0 0 .186-.186v-2.026a.186.186 0 0 0-.186-.187h-2.027a.186.186 0 0 0-.186.187v2.026c0 .103.083.186.186.186z"/></g></g></g></g></g></svg>