<svg xmlns="http://www.w3.org/2000/svg" width="19" height="23" viewBox="0 0 19 23"><g><g><path fill="#fff" d="M5.685 12.507a3.406 3.406 0 0 0 3.41 3.41 3.406 3.406 0 0 0 3.412-3.41 3.406 3.406 0 0 0-3.411-3.411 3.406 3.406 0 0 0-3.411 3.41zM18.192 20V6.822L11.37 0H2.274A2.27 2.27 0 0 0 .011 2.274L0 20.466a2.27 2.27 0 0 0 2.263 2.274h13.655c.511 0 .966-.17 1.353-.455l-5.037-5.037a5.727 5.727 0 0 1-3.138.944 5.687 5.687 0 0 1-5.685-5.685 5.687 5.687 0 0 1 5.685-5.685 5.687 5.687 0 0 1 5.685 5.685 5.66 5.66 0 0 1-.944 3.127z"/></g></g></svg>