<svg xmlns="http://www.w3.org/2000/svg" width="18" height="18" viewBox="0 0 18 18"><g><g><g><g><path fill="#2c6eb9" d="M10.055 10.794c0 .59-.473 1.07-1.055 1.07-.581 0-1.055-.48-1.055-1.07V5.441c0-.59.474-1.07 1.055-1.07.582 0 1.055.48 1.055 1.07zM9 15.076c-.581 0-1.055-.48-1.055-1.07 0-.59.474-1.07 1.055-1.07.582 0 1.055.48 1.055 1.07 0 .59-.473 1.07-1.055 1.07zm8.626-1.901L11.268 1.31a2.617 2.617 0 0 0-4.535 0L.374 13.175c-1.044 1.784.22 4.042 2.267 4.042H15.36c2.045 0 3.311-2.257 2.267-4.042z"/></g></g></g></g></svg>