<svg xmlns="http://www.w3.org/2000/svg" width="15" height="15" viewBox="0 0 15 15"><g><g><path fill="#aaa7a9" d="M10.207 6.285a2.652 2.652 0 0 1-.478.642c-.183.18-.514.484-.991.91-.132.12-.238.226-.317.317-.08.091-.139.174-.177.25a1.205 1.205 0 0 0-.09.227 9.676 9.676 0 0 0-.097.398c-.073.404-.304.605-.691.605a.708.708 0 0 1-.51-.197c-.137-.132-.205-.328-.205-.588 0-.325.05-.607.15-.846.101-.238.235-.448.402-.628.167-.18.391-.395.675-.643.248-.217.427-.38.537-.491.111-.11.204-.234.28-.37a.89.89 0 0 0 .113-.441c0-.31-.115-.572-.346-.785-.23-.213-.529-.32-.893-.32-.427 0-.74.108-.942.323-.202.215-.372.532-.512.95-.132.439-.382.658-.75.658a.738.738 0 0 1-.55-.23c-.149-.153-.223-.319-.223-.497 0-.368.118-.741.354-1.12.237-.378.582-.69 1.036-.939.453-.248.982-.372 1.587-.372.562 0 1.058.104 1.488.311.43.208.763.49.998.847.234.356.352.744.352 1.163 0 .329-.067.617-.2.866zm-2.172 5.384a.883.883 0 0 1-.605.233.913.913 0 0 1-.62-.23c-.176-.153-.264-.367-.264-.642 0-.244.085-.45.256-.617.17-.166.38-.25.628-.25.244 0 .45.084.616.25.167.167.25.372.25.617 0 .271-.087.484-.261.64zM7.5 0C3.36 0 0 3.355 0 7.496a7.5 7.5 0 0 0 15 0A7.496 7.496 0 0 0 7.5 0z"/></g></g></svg>