<svg xmlns="http://www.w3.org/2000/svg" width="57" height="47" viewBox="0 0 57 47"><g><g><g><g><path fill="#e7e6e6" d="M16.96 10.359c.662 0 1.23-.453 1.381-1.102l.476-2.065a5.611 5.611 0 0 1 5.487-4.35h8.225a5.611 5.611 0 0 1 5.488 4.35l.475 2.065c.151.638.72 1.102 1.38 1.102h10.36a3.758 3.758 0 0 1 3.76 3.759v25.081a4.095 4.095 0 0 1-4.096 4.095H6.937A4.095 4.095 0 0 1 2.842 39.2V14.118a3.758 3.758 0 0 1 3.759-3.76zM0 14.118v25.081a6.941 6.941 0 0 0 6.937 6.938h42.97a6.941 6.941 0 0 0 6.938-6.938V14.118a6.605 6.605 0 0 0-6.6-6.601H41.01l-.22-.963a8.433 8.433 0 0 0-8.26-6.555h-8.226a8.452 8.452 0 0 0-8.26 6.555l-.22.963H6.6c-3.643 0-6.601 2.97-6.601 6.6z"/></g><g><path fill="#e7e6e6" d="M7.715 16.426a1.903 1.903 0 1 1 3.805 0 1.903 1.903 0 0 1-3.805 0z"/></g><g><path fill="#e7e6e6" d="M28.423 17.807c5.011 0 9.095 4.083 9.095 9.095 0 5.012-4.084 9.095-9.095 9.095-5.012 0-9.096-4.083-9.096-9.095 0-5.012 4.084-9.095 9.096-9.095zm0 21.032c6.577 0 11.937-5.36 11.937-11.937 0-6.578-5.36-11.937-11.937-11.937-6.578 0-11.938 5.348-11.938 11.937 0 6.59 5.36 11.937 11.938 11.937z"/></g></g></g></g></svg>