<svg xmlns="http://www.w3.org/2000/svg" width="14" height="14" viewBox="0 0 14 14"><g><g><g><path fill="#120d13" d="M7.002 0h-.004C3.138 0 0 3.14 0 7c0 1.531.494 2.95 1.333 4.103l-.873 2.6 2.69-.86A6.94 6.94 0 0 0 7.003 14C10.862 14 14 10.86 14 7s-3.139-7-6.998-7z"/></g><g><path fill="#d70926" d="M11.266 10.045c-.177.504-.88.923-1.441 1.045-.384.083-.885.148-2.573-.557-2.158-.902-3.548-3.114-3.656-3.258-.104-.143-.872-1.17-.872-2.234 0-1.063.535-1.58.75-1.802.178-.183.47-.266.751-.266.091 0 .173.005.246.008.216.01.325.022.467.366.177.43.609 1.493.66 1.603.052.109.105.257.031.4-.069.149-.13.214-.238.34-.108.126-.21.223-.32.358-.098.117-.21.243-.085.46.124.214.556.924 1.191 1.494.82.736 1.485.972 1.722 1.072.178.074.389.056.518-.083.165-.179.367-.475.574-.766.147-.21.332-.236.527-.162.198.07 1.248.593 1.463.701.216.11.358.161.41.253.052.092.052.522-.125 1.028z"/></g></g></g></svg>