<svg xmlns="http://www.w3.org/2000/svg" width="13" height="13" viewBox="0 0 13 13"><g><g><g><g><g><path fill="#120d13" d="M9.208 11.375a.813.813 0 0 1 0-1.625.813.813 0 0 1 0 1.625zm1.808-1.354a1.892 1.892 0 0 0-1.808-1.354c-.855 0-1.572.573-1.807 1.354H.54a.542.542 0 0 0 0 1.083h6.86c.234.78.952 1.354 1.807 1.354.856 0 1.573-.573 1.808-1.354h1.442a.542.542 0 1 0 0-1.083z"/></g></g></g><g><g><g><path fill="#120d13" d="M9.208 2.708a.813.813 0 0 1 0-1.625.813.813 0 0 1 0 1.625zm1.808-1.354A1.892 1.892 0 0 0 9.208 0c-.855 0-1.572.574-1.807 1.354H.54a.542.542 0 0 0 0 1.083h6.86c.235.781.952 1.355 1.807 1.355.856 0 1.573-.574 1.808-1.355h1.442a.542.542 0 1 0 0-1.083z"/></g></g></g><g><g><g><path fill="#120d13" d="M3.792 7.042a.813.813 0 0 1 0-1.625.813.813 0 0 1 0 1.625zm1.807-1.354a1.892 1.892 0 0 0-1.807-1.355c-.856 0-1.573.574-1.808 1.354H.542a.542.542 0 0 0 0 1.084h1.442c.235.78.952 1.354 1.808 1.354.855 0 1.572-.574 1.807-1.354h6.86a.542.542 0 1 0 0-1.083z"/></g></g></g></g></g></svg>