<svg xmlns="http://www.w3.org/2000/svg" width="16" height="9" viewBox="0 0 16 9"><g><g><path fill="#110d13" d="M15.915 8.244a1.098 1.098 0 0 0-.054-.104c-.278-.5-.808-1.114-1.591-1.841l-.017-.017-.008-.008-.008-.008h-.009c-.355-.34-.58-.567-.674-.684-.173-.222-.212-.447-.117-.674.066-.173.316-.536.75-1.092.227-.294.408-.53.54-.708.962-1.277 1.378-2.093 1.25-2.449l-.05-.083c-.032-.05-.119-.096-.257-.137a1.312 1.312 0 0 0-.534-.021l-2.399.016a.312.312 0 0 0-.166.005l-.109.025-.041.02-.034.026a.37.37 0 0 0-.091.087.572.572 0 0 0-.083.146 13.603 13.603 0 0 1-.892 1.874 17.74 17.74 0 0 1-.566.896 4.309 4.309 0 0 1-.433.558c-.117.12-.223.215-.317.287-.095.072-.167.103-.217.092a6.128 6.128 0 0 1-.141-.034.554.554 0 0 1-.188-.204.914.914 0 0 1-.096-.325 3.582 3.582 0 0 1-.029-.337 7.056 7.056 0 0 1 .005-.4c.005-.172.008-.289.008-.35 0-.21.004-.44.012-.687l.021-.587c.006-.145.008-.297.008-.458 0-.162-.01-.288-.029-.38a1.296 1.296 0 0 0-.087-.266.449.449 0 0 0-.17-.2.963.963 0 0 0-.28-.113A5.543 5.543 0 0 0 7.697.001c-1.032-.01-1.696.056-1.99.2a1.122 1.122 0 0 0-.317.25c-.1.122-.114.189-.042.2.333.05.57.17.708.358l.05.1c.04.072.078.2.117.383.039.184.064.386.075.608.028.406.028.753 0 1.042-.028.289-.054.513-.08.674a1.351 1.351 0 0 1-.212.575.143.143 0 0 1-.041.042.624.624 0 0 1-.225.042c-.078 0-.172-.04-.283-.117a1.999 1.999 0 0 1-.346-.32 4.287 4.287 0 0 1-.404-.571A9.956 9.956 0 0 1 4.24 2.6l-.133-.241a20.796 20.796 0 0 1-.341-.68 13.096 13.096 0 0 1-.384-.862.55.55 0 0 0-.2-.266L3.141.526A.884.884 0 0 0 2.816.4L.533.417C.3.417.142.47.058.576l-.033.05A.27.27 0 0 0 0 .759C0 .82.017.895.05.984c.333.783.696 1.538 1.087 2.266.392.727.732 1.313 1.02 1.757.29.445.584.864.884 1.258.3.395.498.647.595.758.097.112.174.195.23.25l.208.2c.133.134.329.293.587.48.258.185.544.369.858.55.314.18.679.327 1.095.44.417.115.822.16 1.217.138h.958c.194-.017.341-.078.441-.183l.033-.042a.552.552 0 0 0 .063-.154c.02-.07.029-.146.029-.229a2.745 2.745 0 0 1 .054-.645c.042-.192.089-.336.142-.434a1.065 1.065 0 0 1 .32-.366.547.547 0 0 1 .067-.03c.133-.044.29 0 .471.13.18.13.35.292.508.483.158.192.349.407.57.646.223.239.417.416.584.533l.166.1c.112.067.256.128.434.183.177.056.333.07.466.042l2.133-.033c.21 0 .375-.035.491-.105.117-.07.186-.146.208-.229a.645.645 0 0 0 .005-.283 1.046 1.046 0 0 0-.059-.22z"/></g></g></svg>