<svg xmlns="http://www.w3.org/2000/svg" width="10" height="15" viewBox="0 0 10 15"><g><g><g><path fill="#120d13" d="M.137 8.01c-.38.748.052 1.107 1.04 1.718.839.519 1.998.709 2.743.785L.985 13.336c-.854.819.52 2.133 1.375 1.331l2.31-2.229c.886.851 1.734 1.667 2.312 2.232.854.805 2.23-.498 1.384-1.33-.063-.061-3.132-3.005-2.945-2.824.755-.076 1.897-.277 2.726-.784V9.73c.987-.615 1.42-.973 1.044-1.722-.227-.425-.839-.78-1.653-.166 0 0-1.1.843-2.874.843-1.775 0-2.874-.843-2.874-.843-.814-.618-1.428-.26-1.653.166z"/></g><g><path fill="#120d13" d="M4.663 1.914c1.062 0 1.93.834 1.93 1.865 0 1.022-.868 1.856-1.93 1.856-1.063 0-1.93-.834-1.93-1.856 0-1.031.866-1.865 1.93-1.865zm0 5.636c2.162 0 3.928-1.69 3.928-3.77C8.591 1.69 6.825 0 4.663 0 2.5 0 .733 1.69.733 3.78c0 2.08 1.767 3.77 3.93 3.77z"/></g></g></g></svg>