<svg xmlns="http://www.w3.org/2000/svg" width="173" height="113" viewBox="0 0 173 113"><g><g><g><path fill="#2c6eb9" d="M0 4c0-2 2-4 4-4h157c2 0 4 2 4 4v105c0 2-2 4-4 4H4c-2 0-4-2-4-4z"/></g><g><path fill="#fff" d="M7 9a2 2 0 1 1 4 0 2 2 0 0 1-4 0z"/></g><g><path fill="#fff" d="M13 9a2 2 0 1 1 4 0 2 2 0 0 1-4 0z"/></g><g><path fill="#fff" d="M19 9a2 2 0 1 1 4 0 2 2 0 0 1-4 0z"/></g><g><g opacity=".2"><path fill="#403941" d="M123 63c0-2 2-4 4-4h37c2 0 4 2 4 4v37c0 2-2 4-4 4h-37c-2 0-4-2-4-4z"/></g><g><path fill="#403941" d="M128 58c0-2 2-4 4-4h37c2 0 4 2 4 4v37c0 2-2 4-4 4h-37c-2 0-4-2-4-4z"/></g><g><path fill="none" stroke="#fff" stroke-linecap="round" stroke-linejoin="round" stroke-miterlimit="50" stroke-width="3" d="M150.5 77v0H141v0h9.5v0-9.5V77h9.5v0h-9.5v9.5z"/></g></g><g><g><path fill="#fff" d="M97.405 68.719l-6.732-3.905c-.404-.27-.808-.134-1.077.135-1.75 2.02-4.713 3.366-8.348 3.366-.808 0-1.616 0-2.29-.135-.942-.134-2.019-.269-2.827-.673-.538-.27-1.212-.538-1.616-.808H61.86c3.366 6.598 10.098 10.907 19.254 10.907 7.136 0 12.926-2.828 16.562-7.675.404-.404.269-.943-.27-1.212"/></g><g><path fill="#fff" d="M99.022 49.33c.807 2.423 1.211 4.847 1.211 7.675v1.211c0 .404-.404.808-.808.808L90 59.563l-8.213.404 2.827 3.231c.404.539 0 1.347-.673 1.347H49.202c-.269 0-.269-.404 0-.404l11.176-1.481c-.539-1.75-.808-3.77-.808-5.79C59.57 45.021 67.918 36 80.306 36c9.021 0 16.023 5.52 18.716 13.33M72.63 57.678c-.404-.404-.27-1.212.404-1.347l16.292-5.655c-1.885-3.904-5.386-5.52-9.021-5.52h-.539c-.808 0-1.616.135-2.289.27h-.404c-2.827.672-4.982 2.557-6.194 5.116-1.077 1.75-1.615 3.904-1.615 6.059 0 1.615.269 3.097.808 4.443l5.25-.673-2.692-2.693"/></g></g></g></g></svg>