<svg xmlns="http://www.w3.org/2000/svg" width="173" height="113" viewBox="0 0 173 113"><g><g><g><path fill="#2c6eb9" d="M57 0h104c2 0 4 2 4 4v105c0 2-2 4-4 4H57z"/></g><g><path fill="#c3e4ed" d="M0 4c0-2 2-4 4-4h53v113H4c-2 0-4-2-4-4z"/></g><g><path fill="#fff" d="M7 9a2 2 0 1 1 4 0 2 2 0 0 1-4 0z"/></g><g><path fill="#fff" d="M13 9a2 2 0 1 1 4 0 2 2 0 0 1-4 0z"/></g><g><path fill="#fff" d="M19 9a2 2 0 1 1 4 0 2 2 0 0 1-4 0z"/></g><g><path fill="#fff" d="M101 19c0-1 1-2 2-2h33c1 0 2 1 2 2s-1 2-2 2h-33c-1 0-2-1-2-2z"/></g><g><path fill="#fff" d="M101 27c0-1 1-2 2-2h33c1 0 2 1 2 2s-1 2-2 2h-33c-1 0-2-1-2-2z"/></g><g opacity=".5"><path fill="#fff" d="M69 53c0-1 1-2 2-2h65c1 0 2 1 2 2s-1 2-2 2H71c-1 0-2-1-2-2z"/></g><g opacity=".5"><path fill="#fff" d="M69 64c0-1 1-2 2-2h65c1 0 2 1 2 2s-1 2-2 2H71c-1 0-2-1-2-2z"/></g><g opacity=".5"><path fill="#fff" d="M69 75c0-1 1-2 2-2h65c1 0 2 1 2 2s-1 2-2 2H71c-1 0-2-1-2-2z"/></g><g opacity=".5"><path fill="#fff" d="M69 86c0-1 1-2 2-2h65c1 0 2 1 2 2s-1 2-2 2H71c-1 0-2-1-2-2z"/></g><g opacity=".5"><path fill="#fff" d="M69 97c0-1 1-2 2-2h36c1 0 2 1 2 2s-1 2-2 2H71c-1 0-2-1-2-2z"/></g><g><path fill="#fff" d="M69 19c0-1 1-2 2-2h20c1 0 2 1 2 2v20c0 1-1 2-2 2H71c-1 0-2-1-2-2z"/></g><g><g opacity=".2"><path fill="#403941" d="M123 21c0-2 2-4 4-4h37c2 0 4 2 4 4v37c0 2-2 4-4 4h-37c-2 0-4-2-4-4z"/></g><g><path fill="#403941" d="M128 16c0-2 2-4 4-4h37c2 0 4 2 4 4v37c0 2-2 4-4 4h-37c-2 0-4-2-4-4z"/></g><g><g><g><path fill="#fff" d="M140 44.98l2.283-.298-1.986-1.985z"/></g><g><path fill="#fff" d="M140.648 40.01l-.234 1.795 2.76 2.76 1.795-.233 12.217-12.217-4.321-4.322z"/></g><g><path fill="#fff" d="M157.52 24.218a.746.746 0 0 0-.53-.218.808.808 0 0 0-.571.24l-2.949 2.948 4.321 4.321 2.95-2.948c.31-.31.32-.804.021-1.102z"/></g></g></g></g></g></g></svg>