<svg xmlns="http://www.w3.org/2000/svg" width="28" height="24" viewBox="0 0 28 24"><g><g><g><path fill="#d70926" d="M26.449 18.47l-3.637-2.115c-.218-.146-.437-.073-.582.073-.946 1.094-2.546 1.823-4.51 1.823-.437 0-.873 0-1.237-.073-.509-.073-1.09-.146-1.527-.364-.291-.146-.655-.292-.873-.438H7.245c1.819 3.573 5.456 5.907 10.402 5.907 3.855 0 6.983-1.531 8.947-4.157.219-.218.146-.51-.145-.656"/></g><g><path fill="#d70926" d="M27.322 7.97c.437 1.312.655 2.624.655 4.156v.656c0 .219-.218.438-.437.438l-5.092.291-4.437.22 1.528 1.75c.218.291 0 .729-.364.729H.407c-.145 0-.145-.22 0-.22l6.038-.801c-.291-.948-.436-2.042-.436-3.136C6.009 5.636 10.519.75 17.21.75c4.874 0 8.656 2.99 10.111 7.22m-14.257 4.52c-.219-.218-.146-.656.218-.729L22.085 8.7c-1.019-2.115-2.91-2.99-4.874-2.99h-.291c-.437 0-.873.073-1.237.146h-.218c-1.528.364-2.691 1.385-3.346 2.77-.582.949-.873 2.115-.873 3.282 0 .875.145 1.677.436 2.407l2.837-.365-1.454-1.459"/></g></g></g></svg>