<svg width="0" height="0" class="hidden">
  <symbol xmlns="http://www.w3.org/2000/svg" viewBox="0 0 24 24" id="spr-like">
    <path d="M14.714 9.366c.145-.861.29-3.072-.008-4.522-.18-.881-.48-1.437-.798-1.79-.521-.654-1.32-.917-1.929-.582a1.17 1.17 0 0 0-.244.179c-.247.234-.392.572-.426.95a1.94 1.94 0 0 0-.008.207c-.005.387.03.9.103 1.59-.26 1.786-1.314 3.501-1.712 4.097l-.505.02a.392.392 0 0 0-.377.39v8.68c0 .607.525.606.525.606h9.074a1.15 1.15 0 0 0 1.149-1.15v-1.307c.634 0 .693-.514.693-1.149v-1.307c.634 0 .53-.514.53-1.149v-1.308c.635 0 .775-.513.775-1.148v-.159c0-.634-.514-1.148-1.148-1.148h-5.694zM5.725 10v9.08"
      fill="none" fill-rule="evenodd" stroke-linecap="round" stroke-linejoin="round" stroke-width="2"></path>
  </symbol>
  <symbol xmlns="http://www.w3.org/2000/svg" xmlns:xlink="http://www.w3.org/1999/xlink" viewBox="0 0 336 42" id="spr-logo">
    <defs>
      <path id="spr-a" d="M.714.986h29.822V42H.714z"></path>
      <path id="spr-c" d="M.584.165H30.75v30.914H.584z"></path>
    </defs>
    <g fill="none" fill-rule="evenodd">
      <path fill="#D70926" d="M36.035 24.287l-4.99-2.88a.649.649 0 0 0-.804.13c-1.337 1.486-3.534 2.525-6.226 2.525-.602 0-1.185-.041-1.747-.12a7.114 7.114 0 0 1-2.118-.521 7.536 7.536 0 0 1-1.241-.603H9.565c2.479 4.869 7.532 8.096 14.333 8.096 5.33 0 9.555-2.055 12.324-5.661a.654.654 0 0 0-.187-.966m1.184-14.344C35.209 4.101 30.016.001 23.313.001 14.12.001 7.856 6.733 7.856 15.458c0 1.518.192 2.975.555 4.348L.139 20.86c-.192.02-.181.302.012.304l25.802.018a.637.637 0 0 0 .504-1.04l-2.138-2.443 6.14-.308 7.027-.406a.651.651 0 0 0 .612-.614 16.91 16.91 0 0 0-.879-6.427M17.62 16.148l2.012 2.015-3.926.494a9.311 9.311 0 0 1-.586-3.269c0-1.649.424-3.192 1.158-4.504.928-1.94 2.52-3.252 4.64-3.797.062-.019.12-.033.18-.05.032-.008.063-.015.094-.024a7.162 7.162 0 0 1 1.71-.209h.033c.125-.004.248-.01.377-.01 2.67 0 5.336 1.215 6.666 4.133l-12.1 4.152a.644.644 0 0 0-.258 1.07"></path>
      <path fill="#FFF" d="M67.363 30.093h-6.192a.68.68 0 0 1-.682-.68V8.08h-8.08v9.78c0 9.003-4.215 12.905-11.729 12.296a.689.689 0 0 1-.625-.684V23.82c0-.404.354-.718.753-.67 2.624.306 4.05-1.52 4.05-5.702V1.499a.68.68 0 0 1 .68-.678h21.825a.68.68 0 0 1 .681.678v27.914a.68.68 0 0 1-.68.68M161.167 8.08h-8.454v21.333a.68.68 0 0 1-.681.681h-6.191a.68.68 0 0 1-.681-.68V8.08h-8.571a.681.681 0 0 1-.68-.682V1.5a.68.68 0 0 1 .68-.68h24.578a.68.68 0 0 1 .68.68v5.898a.681.681 0 0 1-.68.682m65.884-6.58v27.914a.68.68 0 0 1-.68.68h-6.017a.68.68 0 0 1-.68-.68V13.467l-13.556 16.381a.68.68 0 0 1-.522.246h-4.62a.68.68 0 0 1-.684-.68V1.5c0-.375.306-.68.683-.68h6.014c.377 0 .682.305.682.68v15.947l13.556-16.38a.675.675 0 0 1 .522-.247h4.621c.375 0 .681.305.681.68m23.308 28.36l-10.467-13.056v12.66a.63.63 0 0 1-.63.63h-6.294a.63.63 0 0 1-.63-.63V1.46a.63.63 0 0 1 .63-.629h6.295a.63.63 0 0 1 .629.63v12.241l9.88-12.639a.632.632 0 0 1 .497-.243h7.388a.63.63 0 0 1 .487 1.025l-10.932 13.437 11.279 13.784a.629.629 0 0 1-.486 1.027h-7.156a.63.63 0 0 1-.49-.234m-124.932.001L114.96 16.803v12.66a.628.628 0 0 1-.63.63h-6.294a.63.63 0 0 1-.63-.63V1.46a.63.63 0 0 1 .63-.629h6.295c.348 0 .629.28.629.63v12.241l9.882-12.639a.63.63 0 0 1 .495-.243h7.388c.53 0 .82.616.487 1.025l-10.933 13.437 11.279 13.784a.628.628 0 0 1-.486 1.027h-7.154a.633.633 0 0 1-.491-.234M291.095 0c-4.13 0-7.13 1.24-9.51 3.73a.635.635 0 0 0-.422-.45L274.74.82c-.254-.064-.662.155-.682.658v39.647c0 .375.305.68.682.68h6.19a.682.682 0 0 0 .681-.68V26.641c2.108 2.692 5.211 4.273 9.485 4.273 7.847 0 14.285-6.732 14.285-15.457C305.38 6.732 298.942 0 291.095 0m-1.405 23.713c-4.623 0-8.076-3.334-8.08-8.248v-.016c.004-4.914 3.457-8.248 8.08-8.248 4.684 0 8.137 3.338 8.137 8.256s-3.453 8.256-8.137 8.256"></path>
      <g transform="translate(305 -.165)">
        <mask id="spr-b" fill="#fff">
          <use xlink:href="#a"></use>
        </mask>
        <path fill="#FFF" d="M29.855.986h-6.616a.68.68 0 0 0-.646.467l-6.344 19.205L8.575 1.414A.685.685 0 0 0 7.94.986H1.394a.68.68 0 0 0-.63.937L12.21 29.908c-1.325 3.474-3.27 4.924-6.82 5.03a.688.688 0 0 0-.675.68v5.692c0 .367.295.678.662.686 6.705.146 11.846-3.571 14.795-11.737L30.495 1.898a.68.68 0 0 0-.64-.912"
          mask="url(#b)"></path>
      </g>
      <g transform="translate(72 -.165)">
        <mask id="spr-d" fill="#fff">
          <use xlink:href="#c"></use>
        </mask>
        <path fill="#FFF" d="M28.428 24.257l-4.668-2.69a.614.614 0 0 0-.773.119c-1.336 1.496-3.541 2.543-6.243 2.543-2.754 0-5.123-.808-6.683-2.572l13.815-4.77 6.312-2.181.01-.004a.764.764 0 0 0 .552-.7c-.174-1.884-.633-3.663-1.367-5.278C27.072 3.634 22.2.164 16.04.164 6.85.165.584 6.9.584 15.623c0 8.724 6.207 15.457 16.043 15.457 5.35 0 9.584-2.067 12.354-5.7.226-.298.129-.726-.553-1.122M8.08 15.655c0-1.127.045-1.844.3-2.785h-.007c.01-.045.028-.082.039-.127.004-.016.006-.033.012-.05h.004c.924-3.633 3.64-5.737 7.613-5.737 2.654 0 5.298 1.207 6.635 4.084L8.092 16.077c-.004-.14-.012-.272-.012-.422"
          mask="url(#d)"></path>
      </g>
      <path fill="#FFF" d="M182.011 0c-4.13 0-7.13 1.24-9.51 3.73a.633.633 0 0 0-.422-.45L165.655.82c-.252-.064-.66.155-.683.658v39.647c0 .375.306.68.683.68h6.19a.682.682 0 0 0 .681-.68V26.641c2.108 2.692 5.211 4.273 9.485 4.273 7.847 0 14.285-6.732 14.285-15.457C196.296 6.732 189.858 0 182.011 0m-1.405 23.713c-4.623 0-8.076-3.334-8.08-8.248v-.016c.004-4.914 3.457-8.248 8.08-8.248 4.684 0 8.137 3.338 8.137 8.256s-3.453 8.256-8.137 8.256m80.227 2.108a4.975 4.975 0 1 1 9.951 0 4.97 4.97 0 0 1-4.975 4.977 4.973 4.973 0 0 1-4.976-4.977"></path>
    </g>
  </symbol>
  <symbol xmlns="http://www.w3.org/2000/svg" viewBox="0 0 262 65" id="spr-logo-2">
    <g fill="none" fill-rule="evenodd">
      <path fill="#FFF" d="M36.035 36.289l-4.99-2.88a.648.648 0 0 0-.804.13c-1.337 1.486-3.534 2.525-6.226 2.525-.602 0-1.184-.041-1.747-.12a7.115 7.115 0 0 1-2.118-.522 7.613 7.613 0 0 1-1.241-.602H9.565c2.479 4.869 7.532 8.096 14.333 8.096 5.33 0 9.555-2.055 12.324-5.662a.653.653 0 0 0-.187-.965M17.62 28.15l2.014 2.014-3.927.494a9.306 9.306 0 0 1-.586-3.268 9.22 9.22 0 0 1 1.157-4.504c.929-1.94 2.522-3.252 4.642-3.799.06-.017.12-.03.18-.048l.092-.024a7.118 7.118 0 0 1 1.71-.209h.033c.125-.004.249-.01.377-.01 2.67 0 5.336 1.215 6.666 4.133l-12.1 4.151a.645.645 0 0 0-.257 1.07m19.599-6.205c-2.01-5.843-7.204-9.943-13.908-9.943-9.192 0-15.456 6.732-15.456 15.457a17 17 0 0 0 .555 4.35L.139 32.86c-.193.018-.181.301.012.303l25.802.02a.637.637 0 0 0 .504-1.04l-2.14-2.444 6.143-.307 7.025-.406a.653.653 0 0 0 .613-.615 16.908 16.908 0 0 0-.878-6.426"></path>
      <path fill="#1E1E1E" d="M107.064 41.859L96.597 28.805v12.66a.63.63 0 0 1-.63.63h-6.295a.629.629 0 0 1-.629-.63V1.74c0-.347.282-.628.63-.628h6.294c.348 0 .63.28.63.628V25.7l9.881-12.638a.626.626 0 0 1 .495-.241h7.39c.528 0 .82.615.486 1.026l-10.933 13.436 11.28 13.785a.629.629 0 0 1-.487 1.027h-7.155a.625.625 0 0 1-.49-.236m83.802 0l-10.467-13.054v12.66a.628.628 0 0 1-.629.63h-6.295a.629.629 0 0 1-.629-.63V1.74c0-.346.282-.627.629-.627h6.295c.348 0 .629.28.629.627V25.7l9.881-12.637a.628.628 0 0 1 .496-.241h7.387a.63.63 0 0 1 .488 1.026l-10.933 13.435 11.279 13.785a.63.63 0 0 1-.487 1.027h-7.154a.63.63 0 0 1-.49-.236M126.76 20.082V32.26c0 2.995 2.054 3.204 5.959 3.019a.627.627 0 0 1 .657.627v5.621a.633.633 0 0 1-.57.627c-10.155.998-13.6-2.135-13.6-9.894V4.144c0-.277.183-.522.449-.601l6.294-2.404a.629.629 0 0 1 .81.601v11.082h4.17c.284 0 .533.19.607.463l1.625 6.002a.63.63 0 0 1-.607.795h-5.794zm28.592-7.197v7.1a.623.623 0 0 1-.656.625c-3.799-.205-8.243 1.683-8.243 7.492v13.365a.629.629 0 0 1-.629.628h-6.295a.628.628 0 0 1-.629-.628V13.45c0-.347.281-.628.63-.628h6.294c.347 0 .63.28.63.628v4.405c1.43-3.74 4.77-5.412 8.227-5.602a.634.634 0 0 1 .671.63m5.081-.061h6.296a.63.63 0 0 1 .63.63v28.014a.629.629 0 0 1-.63.63h-6.296a.628.628 0 0 1-.629-.63V13.451c0-.348.281-.629.63-.629m-1.508-8.139c0-2.517 2.108-4.683 4.625-4.683 2.576 0 4.684 2.166 4.684 4.683 0 2.518-2.108 4.625-4.684 4.625-2.517 0-4.625-2.107-4.625-4.625M43.093 1.11h6.294c.349 0 .63.28.63.627v39.725a.628.628 0 0 1-.63.63h-6.294a.628.628 0 0 1-.629-.63V1.737c0-.347.282-.628.63-.628m187.995 11.776v7.1a.623.623 0 0 1-.656.625c-3.8-.205-8.242 1.683-8.242 7.492v13.365a.63.63 0 0 1-.63.628h-6.295a.629.629 0 0 1-.63-.628V13.45a.63.63 0 0 1 .63-.628h6.296a.63.63 0 0 1 .629.628v4.405c1.429-3.74 4.769-5.412 8.227-5.602a.634.634 0 0 1 .67.63M201.34 37.878a4.973 4.973 0 0 1 4.977-4.976 4.972 4.972 0 0 1 4.976 4.976 4.971 4.971 0 0 1-4.976 4.977 4.973 4.973 0 0 1-4.976-4.977m60.324-24.427v28.015a.628.628 0 0 1-.63.63c-.6 0-6.923-2.52-6.923-2.52-1.756 2.634-4.801 3.34-8.722 3.34-6.207 0-11.066-4.335-11.066-12.12V13.45c0-.348.28-.629.628-.629h6.295c.348 0 .629.281.629.63v16.405c0 3.982 2.4 6.031 5.797 6.031 3.687 0 6.439-2.166 6.439-7.259V13.451c0-.348.282-.629.629-.629h6.295c.348 0 .629.281.629.63m-199.74 14.04c0-1.127.046-1.846.3-2.785h-.007c.01-.045.028-.082.039-.127.005-.018.007-.033.013-.05h.004c.923-3.634 3.64-5.737 7.613-5.737 2.652 0 5.297 1.207 6.635 4.084l-14.585 5.037c-.004-.14-.012-.274-.012-.422m20.348 8.601l-4.668-2.69a.619.619 0 0 0-.774.118c-1.336 1.496-3.54 2.543-6.241 2.543-2.754 0-5.124-.807-6.685-2.57l13.816-4.772 6.312-2.18.01-.004a.766.766 0 0 0 .553-.698c-.174-1.885-.634-3.665-1.367-5.28-2.313-5.09-7.185-8.558-13.342-8.558-9.191 0-15.457 6.732-15.457 15.456 0 8.723 6.206 15.457 16.042 15.457 5.349 0 9.585-2.068 12.353-5.699.227-.299.129-.728-.552-1.123M16.32 58.2c-.309-1.77-1.606-2.53-2.945-2.53-1.668 0-2.8.988-3.11 2.53h6.055zm-2.739 4.243c1.236 0 2.162-.554 2.657-1.275l1.833 1.07c-.948 1.4-2.492 2.244-4.51 2.244-3.399 0-5.602-2.326-5.602-5.416 0-3.047 2.203-5.416 5.437-5.416 3.07 0 5.17 2.47 5.17 5.438 0 .308-.042.638-.083.925h-8.197c.35 1.608 1.647 2.43 3.295 2.43zm6.326-3.377c0-3.068 2.328-5.416 5.438-5.416 2.018 0 3.768 1.05 4.593 2.656l-1.916 1.114c-.453-.97-1.462-1.586-2.697-1.586-1.813 0-3.194 1.378-3.194 3.232 0 1.854 1.38 3.234 3.194 3.234 1.235 0 2.244-.638 2.739-1.586l1.915 1.092c-.866 1.627-2.616 2.676-4.634 2.676-3.11 0-5.438-2.367-5.438-5.416m19.957-3.006h-3.357v8.154h-2.224V56.06h-3.377v-2.143h8.958zm7.458 4.758c0-.865-.68-1.4-1.545-1.4H43.49v2.8h2.287c.865 0 1.545-.556 1.545-1.4m2.183 0c0 2.018-1.565 3.396-3.748 3.396h-4.49V53.918h2.223v3.502h2.267c2.183 0 3.748 1.359 3.748 3.398m13.411 3.396l-4.222-4.758v4.758H56.47V53.917h2.224v4.551l3.996-4.55h2.72l-4.532 5.046 4.695 5.25zm11.518-5.148c0-1.873-1.4-3.254-3.213-3.254-1.81 0-3.212 1.38-3.212 3.254 0 1.875 1.401 3.254 3.212 3.254 1.813 0 3.213-1.38 3.213-3.254m-8.649 0c0-3.068 2.43-5.416 5.436-5.416 3.028 0 5.438 2.348 5.438 5.416 0 3.049-2.41 5.416-5.438 5.416-3.006 0-5.436-2.367-5.436-5.416m21.96-5.149v10.297H85.52v-4.097h-4.716v4.098H78.58V53.916h2.225v4.099h4.716v-4.099zm10.352 2.143h-3.355v8.154h-2.226V56.06H89.14v-2.143h8.959zm9.538 3.006c0-1.914-1.4-3.295-3.254-3.295-1.853 0-3.254 1.38-3.254 3.295 0 1.916 1.401 3.295 3.255 3.295 1.853 0 3.253-1.38 3.253-3.295zm2.224-5.148v10.296h-2.224v-1.482c-.782 1.092-1.998 1.75-3.604 1.75-2.8 0-5.127-2.367-5.127-5.416 0-3.068 2.327-5.416 5.127-5.416 1.606 0 2.822.658 3.604 1.73v-1.462h2.224zm9.001 10.296l-4.222-4.758v4.758h-2.224V53.917h2.224v4.551l3.995-4.55h2.72l-4.532 5.046 4.695 5.25zm12.395-8.154H127.9v8.154h-2.225V56.06h-3.377v-2.143h8.958z"></path>
    </g>
  </symbol>
  <symbol xmlns="http://www.w3.org/2000/svg" viewBox="0 0 71 28" id="spr-notification">
    <path fill="#D70926" d="M0 6.172V26.05a1.2 1.2 0 0 0 1.644 1.115L31.206 15.38a1.2 1.2 0 0 1 1.645 1.115v4.188a1.2 1.2 0 0 0 1.715 1.084L69.427 5.199a1.2 1.2 0 0 0-.703-2.27L34.24 8.394a1.2 1.2 0 0 1-1.388-1.185V2.125a1.2 1.2 0 0 0-1.358-1.19L1.042 4.983A1.2 1.2 0 0 0 0 6.172z"></path>
  </symbol>
  <symbol xmlns="http://www.w3.org/2000/svg" viewBox="0 0 42 42" id="spr-ok">
    <g fill="none" fill-rule="evenodd">
      <path fill-rule="nonzero" stroke="#c7c7c7" d="M37.06 1H4.94A3.941 3.941 0 0 0 1 4.942v32.116A3.941 3.941 0 0 0 4.94 41h32.12A3.941 3.941 0 0 0 41 37.058V4.942A3.941 3.941 0 0 0 37.06 1"></path>
      <path fill="#c7c7c7" d="M21.366 12.367a2.766 2.766 0 0 1 2.77 2.758 2.766 2.766 0 0 1-2.77 2.756 2.767 2.767 0 0 1-2.768-2.756 2.767 2.767 0 0 1 2.768-2.758m0 9.417c3.69 0 6.688-2.987 6.688-6.66s-2.999-6.661-6.688-6.661c-3.687 0-6.687 2.988-6.687 6.662 0 3.672 3 6.659 6.687 6.659m2.706 5.433a12.552 12.552 0 0 0 3.883-1.601 1.947 1.947 0 0 0 .615-2.692 1.963 1.963 0 0 0-2.702-.613 8.52 8.52 0 0 1-9.004 0 1.961 1.961 0 0 0-2.7.613 1.947 1.947 0 0 0 .613 2.692 12.57 12.57 0 0 0 3.883 1.601l-3.738 3.724a1.947 1.947 0 0 0 0 2.76 1.961 1.961 0 0 0 2.771 0l3.673-3.66 3.675 3.66a1.964 1.964 0 0 0 2.77 0 1.945 1.945 0 0 0 0-2.76l-3.739-3.724z"></path>
    </g>
  </symbol>
  <symbol xmlns="http://www.w3.org/2000/svg" viewBox="0 0 100 100" preserveAspectRatio="xMidYMid" id="spr-preloader">
    <rect x="47" y="41" rx="9.4" ry="8.2" width="6" height="6">
      <animate attributeName="opacity" values="1;0" keyTimes="0;1" dur="1s" begin="-0.9s" repeatCount="indefinite"></animate>
    </rect>
    <rect x="47" y="41" rx="9.4" ry="8.2" width="6" height="6" transform="rotate(36 50 50)">
      <animate attributeName="opacity" values="1;0" keyTimes="0;1" dur="1s" begin="-0.8s" repeatCount="indefinite"></animate>
    </rect>
    <rect x="47" y="41" rx="9.4" ry="8.2" width="6" height="6" transform="rotate(72 50 50)">
      <animate attributeName="opacity" values="1;0" keyTimes="0;1" dur="1s" begin="-0.7s" repeatCount="indefinite"></animate>
    </rect>
    <rect x="47" y="41" rx="9.4" ry="8.2" width="6" height="6" transform="rotate(108 50 50)">
      <animate attributeName="opacity" values="1;0" keyTimes="0;1" dur="1s" begin="-0.6s" repeatCount="indefinite"></animate>
    </rect>
    <rect x="47" y="41" rx="9.4" ry="8.2" width="6" height="6" transform="rotate(144 50 50)">
      <animate attributeName="opacity" values="1;0" keyTimes="0;1" dur="1s" begin="-0.5s" repeatCount="indefinite"></animate>
    </rect>
    <rect x="47" y="41" rx="9.4" ry="8.2" width="6" height="6" transform="rotate(180 50 50)">
      <animate attributeName="opacity" values="1;0" keyTimes="0;1" dur="1s" begin="-0.4s" repeatCount="indefinite"></animate>
    </rect>
    <rect x="47" y="41" rx="9.4" ry="8.2" width="6" height="6" transform="rotate(216 50 50)">
      <animate attributeName="opacity" values="1;0" keyTimes="0;1" dur="1s" begin="-0.3s" repeatCount="indefinite"></animate>
    </rect>
    <rect x="47" y="41" rx="9.4" ry="8.2" width="6" height="6" transform="rotate(252 50 50)">
      <animate attributeName="opacity" values="1;0" keyTimes="0;1" dur="1s" begin="-0.2s" repeatCount="indefinite"></animate>
    </rect>
    <rect x="47" y="41" rx="9.4" ry="8.2" width="6" height="6" transform="rotate(288 50 50)">
      <animate attributeName="opacity" values="1;0" keyTimes="0;1" dur="1s" begin="-0.1s" repeatCount="indefinite"></animate>
    </rect>
    <rect x="47" y="41" rx="9.4" ry="8.2" width="6" height="6" transform="rotate(324 50 50)">
      <animate attributeName="opacity" values="1;0" keyTimes="0;1" dur="1s" begin="0s" repeatCount="indefinite"></animate>
    </rect>
  </symbol>
  <symbol xmlns="http://www.w3.org/2000/svg" xmlns:xlink="http://www.w3.org/1999/xlink" viewBox="0 0 10 10" id="spr-red-cross">
    <defs>
      <path id="spr-a" d="M8.068 6.21h4.003v2H8.068v3.861h-2V8.21H2.071v-2h3.997V2.071h2V6.21z"></path>
    </defs>
    <use transform="rotate(45 8.485 3.657)" xlink:href="#a"></use>
  </symbol>
  <symbol xmlns="http://www.w3.org/2000/svg" viewBox="0 0 24 24" id="spr-search">
    <g fill="none" fill-rule="evenodd" stroke="#7F7F7F" stroke-width="2">
      <circle cx="9.5" cy="9.5" r="6.5" stroke-linecap="round"></circle>
      <path stroke-linecap="square" d="M14 14.5l5.907 5.907"></path>
    </g>
  </symbol>
  <symbol xmlns="http://www.w3.org/2000/svg" xmlns:xlink="http://www.w3.org/1999/xlink" viewBox="0 0 259 241" id="spr-stages-design">
    <defs>
      <path id="spr-a" d="M0 3.535v151.197a3 3 0 0 0 2.628 2.977l71 8.87A3 3 0 0 0 77 163.602V15.244a3 3 0 0 0-2.512-2.96L3.488.575A3 3 0 0 0 0 3.535z"></path>
      <path id="spr-c" d="M49 11.796v2.524c-3.166 0-6.55-.544-10.277-1.58-3.565-.991-7.062-2.29-12.136-4.402C14.243 3.201 12.354 2.524 8.772 2.524c-4.375 0-6.439 2.892-6.439 10.534 0 26.61 20.84 56.881 35.143 50.577l.88 2.338C22.028 73.17 0 41.17 0 13.058 0 4.144 2.957 0 8.772 0c4.022 0 5.86.659 18.653 5.982 4.997 2.08 8.421 3.352 11.88 4.313 3.548.987 6.745 1.501 9.695 1.501z"></path>
    </defs>
    <g fill="none" fill-rule="evenodd">
      <path fill="#BBE5EE" fill-rule="nonzero" d="M147.413 95.173l95.443-31.505a5 5 0 0 1 6.567 4.748v110.197a5 5 0 0 1-2.5 4.33l-98.755 57.017a5 5 0 0 1-5.244-.15L2.256 147.48A5 5 0 0 1 0 143.301V33.944a5 5 0 0 1 7.163-4.508l136.52 65.497a5 5 0 0 0 3.73.24z"></path>
      <path fill="#BBE5EE" fill-rule="nonzero" d="M182 42.377v151.196a3 3 0 0 0 2.628 2.977l71 8.87a3 3 0 0 0 3.372-2.977V54.085a3 3 0 0 0-2.512-2.96l-71-11.708a3 3 0 0 0-3.488 2.96z"></path>
      <path fill="#BBE5EE" fill-rule="nonzero" d="M180.5 56.676v141.512a5 5 0 0 1-7.518 4.32l-119.5-69.67a5 5 0 0 1-2.482-4.32V5A5 5 0 0 1 57.985.41l119.5 51.676a5 5 0 0 1 3.015 4.59z" opacity=".6"></path>
      <path fill="#BBE5EE" fill-rule="nonzero" d="M25 40.377v151.196a3 3 0 0 0 2.628 2.977l71 8.87a3 3 0 0 0 3.372-2.977V52.085a3 3 0 0 0-2.512-2.96l-71-11.708A3 3 0 0 0 25 40.377z"></path>
      <path fill="#FFF" fill-rule="nonzero" d="M26 36.377v151.196a3 3 0 0 0 2.628 2.977l71 8.87a3 3 0 0 0 3.372-2.977V48.085a3 3 0 0 0-2.512-2.96l-71-11.708A3 3 0 0 0 26 36.377z"></path>
      <g transform="translate(180 32.842)">
        <mask id="spr-b" fill="#fff">
          <use xlink:href="#a"></use>
        </mask>
        <use fill="#FFF" fill-rule="nonzero" xlink:href="#a"></use>
        <path fill="#E5E8EE" d="M36.442 183.688a6.978 6.978 0 0 1-2.05-4.95v-128l10-25 10 25v128a7 7 0 0 1-7 7h-6c-1.289 0-2.939-.684-4.95-2.05z" mask="url(#b)" transform="rotate(-171 44.392 105.738)"></path>
      </g>
      <path fill="#E5E8EE" fill-rule="nonzero" d="M180 36.377v151.196a3 3 0 0 1-2.628 2.977l-71 8.87a3 3 0 0 1-3.372-2.977V48.085a3 3 0 0 1 2.512-2.96l71-11.708a3 3 0 0 1 3.488 2.96z"></path>
      <path stroke="#B2BAC6" stroke-width="2" d="M47.57 62.14L103 68.5l77-11 60.34 10.29a5 5 0 0 1 4.16 4.93v100.509a5 5 0 0 1-5.712 4.949L178.5 169.5l-75.5 12-56.73-8.37a5 5 0 0 1-4.27-4.946V67.107a5 5 0 0 1 5.57-4.968z" opacity=".6"></path>
      <path stroke="#B2BAC6" stroke-width="2" d="M52.533 69.093L103 74.5l41-6.013V114.5l4.085-.5V67.916L180 63.5l54.342 9.29a5 5 0 0 1 4.158 4.928v88.524a5 5 0 0 1-5.701 4.95L178.5 163.5l-30.415 5L148 138l-4 .5v30.698l-41 6.302-51.707-7.387a5 5 0 0 1-4.293-4.95V74.065a5 5 0 0 1 5.533-4.971z"
        opacity=".6"></path>
      <g fill-rule="nonzero">
        <path fill="#232835" d="M210.681 22.805l-41.374 194.651-30.323-6.445 41.374-194.652 30.323 6.446zm-17.562 8.072a2.83 2.83 0 0 0 3.344-2.18 2.83 2.83 0 0 0-2.169-3.35 2.83 2.83 0 0 0-3.344 2.179 2.83 2.83 0 0 0 2.169 3.35z"></path>
        <path fill="#2068BC" d="M206.27 22.072l-41.375 194.65-30.323-6.444 41.375-194.652 30.322 6.446zm-17.563 8.072a2.83 2.83 0 0 0 3.345-2.18 2.83 2.83 0 0 0-2.17-3.35 2.83 2.83 0 0 0-3.344 2.179 2.83 2.83 0 0 0 2.17 3.35z"></path>
        <path fill="#232835" d="M171.888 33.64l-.402 1.894 21.52 4.574.402-1.893-21.52-4.574zm-1.744 8.206l-.402 1.894 13.042 2.772.402-1.894-13.042-2.772zm-1.744 8.205l-.402 1.894 13.042 2.772.402-1.894-13.042-2.772zm-1.744 8.206l-.402 1.893 13.042 2.772.402-1.893-13.042-2.772zm-1.744 8.205l-.402 1.894 21.519 4.574.402-1.894-21.519-4.574zm-1.744 8.205l-.403 1.894 13.042 2.772.403-1.893-13.042-2.773zm-1.744 8.206l-.403 1.893 13.042 2.772.403-1.893-13.042-2.772zm-1.744 8.205l-.403 1.894 13.042 2.772.403-1.894-13.042-2.772zm-1.879 8.837l-.402 1.893 21.52 4.574.402-1.893-21.52-4.574zm-1.744 8.205l-.402 1.894 13.042 2.772.402-1.894-13.042-2.772zm-1.744 8.205l-.402 1.894 13.042 2.772.402-1.893-13.042-2.773zm-1.744 8.206l-.402 1.893 13.042 2.773.402-1.894-13.042-2.772zm-1.744 8.205l-.402 1.894 21.519 4.574.402-1.894-21.519-4.574zm-1.744 8.206l-.403 1.893 13.042 2.772.403-1.893-13.042-2.772zm-1.744 8.205l-.403 1.893 13.042 2.773.403-1.894-13.042-2.772zm-1.744 8.205l-.403 1.894 13.042 2.772.403-1.894-13.042-2.772zm-1.879 8.837l-.402 1.893 21.52 4.574.402-1.893-21.52-4.574zm-1.744 8.205l-.402 1.894 13.042 2.772.402-1.894-13.042-2.772zm-1.744 8.206l-.402 1.893 13.042 2.772.402-1.893-13.042-2.772zm-1.744 8.205l-.402 1.893 13.042 2.773.402-1.894-13.042-2.772zm-1.744 8.205l-.402 1.894 21.519 4.574.402-1.894-21.519-4.574z"></path>
      </g>
      <path fill="#C2CAD5" d="M179.31 178.325l7.417 2.997 11.182-11.66 3.746-9.272-18.544-7.492-3.746 9.272zm59.806-110.653l-18.544-7.492 3.746-9.272 18.544 7.492z"></path>
      <path fill="#D70926" fill-rule="nonzero" d="M220.572 60.18l-41.207 101.99c1.124-2.782 4.191-3.7 6.51-2.763 2.317.936 3.333 2.426 3.699 4.19 1.025-1.203 3.441-1.844 5.76-.908 2.78 1.124 3.699 4.191 2.762 6.51l41.207-101.99-18.544-7.493-.187.464z"></path>
      <path fill="#232835" d="M186.727 181.322l-7.455 7.773.037-10.77z"></path>
      <path fill="#D70926" d="M242.862 58.4l-18.544-7.492 2.997-7.418a7 7 0 0 1 9.112-3.868l5.563 2.248a7 7 0 0 1 3.868 9.112l-2.996 7.418z"></path>
      <path fill="#9A1628" fill-rule="nonzero" d="M229.844 63.926l-40.27 99.672c1.489-1.016 3.441-1.845 5.76-.909 2.78 1.124 3.699 4.191 2.762 6.51l41.207-101.99-9.272-3.747-.187.464z"></path>
      <path fill="#9FA7B1" d="M239.116 67.672l-9.272-3.746 3.746-9.272 9.272 3.746z"></path>
      <path fill="#9A1628" d="M242.862 58.4l-9.272-3.746 5.619-13.908 2.781 1.124a7 7 0 0 1 3.868 9.112l-2.996 7.418z"></path>
      <path stroke="#BBE5EE" stroke-linecap="round" stroke-linejoin="round" stroke-width="2" d="M25.5 205.5l46 5.5"></path>
      <path fill="#BBE5EE" fill-rule="nonzero" d="M34.851 203.442l6.641.58-1.85 5.862-6.642-.581z"></path>
      <g fill-rule="nonzero" stroke="#D70926" stroke-linecap="round" stroke-linejoin="round">
        <path stroke-width="3" d="M56 105c6.627 0 12-5.373 12-12s-5.373-12-12-12v24z"></path>
        <path d="M68 79.5v25.619M56.5 93h22.88" stroke-width="2"></path>
      </g>
      <g fill-rule="nonzero" stroke="#D70926" stroke-linecap="round" stroke-linejoin="round">
        <path stroke-width="3" d="M56 156c6.627 0 12-5.373 12-12s-5.373-12-12-12v24z"></path>
        <path d="M68 130.5v25.619M56.5 144h22.88" stroke-width="2"></path>
      </g>
      <circle cx="121" cy="120" r="13" stroke="#D70926" stroke-linecap="round" stroke-linejoin="round" stroke-width="3"></circle>
      <path d="M109.265 109.265l22.14 22.14m-21.654.708l22.245-22.245" fill-rule="nonzero" stroke="#D70926" stroke-linecap="round" stroke-linejoin="round" stroke-width="2"></path>
      <path stroke="#D70926" stroke-linecap="round" stroke-linejoin="round" stroke-width="2" d="M121.5 108V81m0-8v-3m0-9v-1"></path>
      <g transform="translate(6 80)">
        <mask id="spr-d" fill="#fff">
          <use xlink:href="#c"></use>
        </mask>
        <use fill="#D70926" fill-rule="nonzero" xlink:href="#c"></use>
        <path fill="#FFF" fill-rule="nonzero" d="M20 16.377v151.196a3 3 0 0 0 2.628 2.977l71 8.87A3 3 0 0 0 97 176.443V28.085a3 3 0 0 0-2.512-2.96l-71-11.708A3 3 0 0 0 20 16.377z" mask="url(#d)"></path>
        <path stroke="#B2BAC6" stroke-width="2" d="M41.57 32.14L97 38.5l77-11 60.34 10.29a5 5 0 0 1 4.16 4.93v50.509a5 5 0 0 1-5.712 4.949L172.5 89.5l-75.5 12-56.73-8.37A5 5 0 0 1 36 88.184V37.107a5 5 0 0 1 5.57-4.968z" mask="url(#d)" opacity=".6"></path>
      </g>
      <g fill-rule="nonzero" stroke="#FFF" stroke-linecap="round" stroke-linejoin="round">
        <path d="M186.242 207.986c3.117-1.038 7.305-2.49 12.564-4.358"></path>
        <path stroke-width="2" d="M179.09 204.19c5.6-.053 12.874-1.847 21.82-5.38"></path>
      </g>
    </g>
  </symbol>
  <symbol xmlns="http://www.w3.org/2000/svg" xmlns:xlink="http://www.w3.org/1999/xlink" viewBox="0 0 261 239" id="spr-stages-installation">
    <defs>
      <path id="spr-a" d="M0 0v8.5h7.5a3.5 3.5 0 0 1 0 7H0v79l15-3 8.5-6.5 3.424-53.316a37 37 0 0 0 .076-2.37V19.226a17 17 0 0 0-4.022-10.98L16 0H0z"></path>
      <path id="spr-c" d="M0 0v8.5h7.5a3.5 3.5 0 0 1 0 7H0v79l15-3 8.5-6.5 3.424-53.316a37 37 0 0 0 .076-2.37V19.226a17 17 0 0 0-4.022-10.98L16 0H0z"></path>
      <path id="spr-e" d="M17.158 1.943l-13.65 17.15a12 12 0 0 0-2.36 9.92L30 167.5c3.333 1 6.167 1.333 8.5 1 3.5-.5 6.5-2.5 6.5-10 0-3.313-.707-24.549-7-60.5-2.136-12.203-6.97-34.203-14.5-66 3-7 3.833-13.5 2.5-19.5-.922-4.148-2.242-7.58-3.96-10.294a3 3 0 0 0-4.882-.263z"></path>
      <path id="spr-g" d="M20 81.5l2 4.5c-9.743 6.735-16.284 2.634-19.297-8.506C.508 69.376.102 57.254.946 40.534c.249-4.92.582-9.91 1.082-16.52C3.564 3.672 3.5 4.61 3.5.5h5c0 4.31.073 3.245-1.486 23.89-.497 6.573-.828 11.526-1.074 16.396-.819 16.212-.426 27.95 1.59 35.403C9.708 84.244 13.355 86.093 20 81.5z"></path>
      <path id="spr-i" d="M17.158 1.943l-13.65 17.15a12 12 0 0 0-2.36 9.92L30 167.5c3.333 1 6.167 1.333 8.5 1 3.5-.5 6.5-2.5 6.5-10 0-3.313-.707-24.549-7-60.5-2.136-12.203-6.97-34.203-14.5-66 3-7 3.833-13.5 2.5-19.5-.922-4.148-2.242-7.58-3.96-10.294a3 3 0 0 0-4.882-.263z"></path>
      <rect id="spr-k" width="29" height="130" rx="2"></rect>
      <rect id="spr-m" width="29" height="130" rx="2"></rect>
    </defs>
    <g fill="none" fill-rule="evenodd">
      <path fill="#BBE5EE" fill-rule="nonzero" d="M231.5 86.676v92.915a5 5 0 0 1-4.194 4.934l-119.5 19.526a5 5 0 0 1-5.806-4.934V35a5 5 0 0 1 6.985-4.59l119.5 51.676a5 5 0 0 1 3.015 4.59z" opacity=".6"></path>
      <path fill="#BBE5EE" fill-rule="nonzero" d="M103.923 9.66v48.806a5 5 0 0 0 2.043 4.032l152.7 111.971a5 5 0 0 1-.456 8.362l-95.276 55.008a5 5 0 0 1-4.195.374L3.305 182.19A5 5 0 0 1 0 177.487v-113.6a5 5 0 0 1 2.5-4.33L96.423 5.33a5 5 0 0 1 7.5 4.33z"></path>
      <path fill="#FFF" fill-rule="nonzero" d="M143 47.535V20a2 2 0 0 1 2-2h27a2 2 0 0 1 2 2 2 2 0 0 1 2-2h25a2 2 0 0 1 2 2v27.535a4.017 4.017 0 0 1 1.646 1.819A4 4 0 0 1 207 53v65a4 4 0 0 1-4 4v24a2 2 0 0 1-2 2h-25a2 2 0 0 1-2-2 2 2 0 0 1-2 2h-27a2 2 0 0 1-2-2v-24.535a3.998 3.998 0 0 1-2-3.465V51c0-1.48.804-2.773 2-3.465z"></path>
      <g transform="translate(88 4)">
        <mask id="spr-b" fill="#fff">
          <use xlink:href="#a"></use>
        </mask>
        <use fill="#646C78" fill-rule="nonzero" xlink:href="#a"></use>
        <path fill="#232835" fill-rule="nonzero" d="M-1 27c14.667 1.333 26.333 5 35 11 8.667 6 11.667 29 9 69l-44 1.5V27z" mask="url(#b)"></path>
      </g>
      <g transform="matrix(-1 0 0 1 88 4)">
        <mask id="spr-d" fill="#fff">
          <use xlink:href="#c"></use>
        </mask>
        <use fill="#646C78" fill-rule="nonzero" xlink:href="#c"></use>
        <path fill="#232835" fill-rule="nonzero" d="M-1 27c14.667 1.333 26.333 5 35 11 8.667 6 11.667 29 9 69l-44 1.5V27z" mask="url(#d)"></path>
      </g>
      <circle cx="88" cy="77" r="11" fill="#646C78" fill-rule="nonzero"></circle>
      <rect width="30" height="8" x="73" y="47" fill="#646C78" fill-rule="nonzero" rx="4"></rect>
      <rect width="8" height="8" x="73" y="59" fill="#646C78" fill-rule="nonzero" rx="4"></rect>
      <rect width="8" height="8" x="62" y="20" fill="#C2CAD5" fill-rule="nonzero" rx="4"></rect>
      <rect width="8" height="8" x="95" y="59" fill="#646C78" fill-rule="nonzero" rx="4"></rect>
      <rect width="12" height="12" x="82" y="71" fill="#232835" fill-rule="nonzero" rx="4"></rect>
      <path fill="#ABB4C1" fill-rule="nonzero" d="M80.03 1.943l2.787 4.643v2H64a2 2 0 0 1-.702-3.873l11.9-4.458a4 4 0 0 1 4.833 1.688zm12.756 0L90 6.586v2h18.817a2 2 0 0 0 .702-3.873L97.619.255a4 4 0 0 0-4.833 1.688z"></path>
      <path fill="#2068BC" fill-rule="nonzero" d="M98.05 19.086l-.6-.172A2 2 0 0 1 96 16.991v-1.3a2 2 0 0 1 1.047-1.758l8.926-4.835a2.854 2.854 0 0 1 3.527.652l.296.346A5 5 0 0 1 111 13.35v3.822a2 2 0 0 1-.586 1.414l-2.828 2.828a2 2 0 0 0-.586 1.414V39a2 2 0 0 1-2 2h-3.5a2 2 0 0 1-2-2V21.009a2 2 0 0 0-1.45-1.923zM77 34h10v6H77a3 3 0 0 1 0-6z"></path>
      <path fill="#C2CAD5" fill-rule="nonzero" d="M87 19.421V40a2 2 0 0 0 2 2h9a2 2 0 0 0 2-2V21.152a2 2 0 0 0-1.622-1.964l-9-1.73A2 2 0 0 0 87 19.42zM72 19v10a2 2 0 0 0 2 2h9a2 2 0 0 0 2-2V19a2 2 0 0 0-2-2h-9a2 2 0 0 0-2 2z"></path>
      <g transform="matrix(-1 0 0 1 81 64)">
        <mask id="spr-f" fill="#fff">
          <use xlink:href="#e"></use>
        </mask>
        <use fill="#2068BC" fill-rule="nonzero" xlink:href="#e"></use>
        <path fill="#232835" fill-rule="nonzero" d="M26.5 3.5L7.957 28.224a9 9 0 0 0-1.602 7.28l9.228 43.201a60 60 0 0 0 2.26 7.895c4.379 12.09 7.93 25.557 10.657 40.4 2.21 12.031 3.696 21.259 4.46 27.683a8 8 0 0 0 6.48 6.922L55 164.5 26.5 3.5z"
          mask="url(#f)"></path>
      </g>
      <path fill-rule="nonzero" stroke="#F8E71C" stroke-width="3" d="M98.906 11.436c-36.797-2.678-59.63 6.989-68.5 29-13.5 33.5 15.354 64.196 47.5 83.5 44.41 26.667 134.428 60.92 94 90-28.5 20.5-15.5-60.34-15.5-82.5"></path>
      <g transform="translate(150 130)">
        <mask id="spr-h" fill="#fff">
          <use xlink:href="#g"></use>
        </mask>
        <use fill="#D70926" fill-rule="nonzero" xlink:href="#g"></use>
        <path fill="#9A1628" fill-rule="nonzero" d="M-56.694-110.354l.177 4.997c-26.528.94-43.08 10.213-50.164 27.791-11.34 28.14 8.289 57.497 46.468 80.423 5.161 3.099 11.14 6.435 19.018 10.657 4.099 2.196 18.913 10.02 21.408 11.349C3.749 37.398 17.879 45.867 28.554 54.598c19.36 15.835 22.5 30.403 4.916 42.777l-2.878-4.089C44.855 83.25 42.538 72.496 25.39 58.47 15.049 50.01 1.114 41.66-22.138 29.276c-2.482-1.322-17.303-9.15-21.418-11.355-7.944-4.257-13.987-7.629-19.231-10.778-17.831-10.707-32.523-23.516-41.659-37.18-10.758-16.09-13.539-32.856-6.873-49.397 7.907-19.62 26.284-29.916 54.625-30.92z"
          mask="url(#h)"></path>
      </g>
      <path fill="#D70926" fill-rule="nonzero" d="M82.22 8l.177 4.997c-26.528.939-43.08 10.213-50.164 27.791-11.34 28.14 8.289 57.496 46.468 80.422 5.161 3.1 11.14 6.436 19.018 10.657 4.099 2.197 18.913 10.02 21.408 11.35 23.536 12.535 37.666 21.003 48.341 29.735 19.36 15.835 22.115 30.674 4.532 43.048l-2-4.5c14.263-10.037 11.452-20.65-5.697-34.678-10.34-8.457-24.275-16.808-47.527-29.193-2.482-1.321-17.303-9.15-21.418-11.354-7.944-4.257-13.987-7.629-19.231-10.778-17.831-10.707-32.523-23.516-41.659-37.18-10.758-16.09-13.539-32.856-6.873-49.398C35.502 19.3 53.88 9.003 82.22 8z"></path>
      <g transform="translate(95 64)">
        <mask id="spr-j" fill="#fff">
          <use xlink:href="#i"></use>
        </mask>
        <use fill="#2068BC" fill-rule="nonzero" xlink:href="#i"></use>
        <path fill="#232835" fill-rule="nonzero" d="M26.5 3.5L7.957 28.224a9 9 0 0 0-1.602 7.28l9.228 43.201a60 60 0 0 0 2.26 7.895c4.379 12.09 7.93 25.557 10.657 40.4 2.21 12.031 3.696 21.259 4.46 27.683a8 8 0 0 0 6.48 6.922L55 164.5 26.5 3.5z"
          mask="url(#j)"></path>
      </g>
      <g transform="translate(139 14)">
        <rect width="29" height="130" x="4" fill="#646C78" fill-rule="nonzero" rx="2"></rect>
        <g transform="translate(2)">
          <mask id="spr-l" fill="#fff">
            <use xlink:href="#k"></use>
          </mask>
          <use fill="#B2BAC6" fill-rule="nonzero" xlink:href="#k"></use>
          <rect width="66" height="73" x="-2" y="31" fill="#000" fill-opacity=".1" fill-rule="nonzero" mask="url(#l)" rx="4"></rect>
        </g>
        <g transform="translate(33)">
          <mask id="spr-n" fill="#fff">
            <use xlink:href="#m"></use>
          </mask>
          <use fill="#B2BAC6" fill-rule="nonzero" xlink:href="#m"></use>
          <rect width="66" height="73" x="-33" y="31" fill="#000" fill-opacity=".1" fill-rule="nonzero" mask="url(#n)" rx="4"></rect>
        </g>
        <rect width="14" height="14" x="10" y="5" fill="#646C78" fill-rule="nonzero" rx="7"></rect>
        <rect width="14" height="14" x="10" y="110" fill="#646C78" fill-rule="nonzero" rx="7"></rect>
        <rect width="14" height="14" x="41" y="5" fill="#646C78" fill-rule="nonzero" rx="7"></rect>
        <rect width="14" height="14" x="41" y="110" fill="#646C78" fill-rule="nonzero" rx="7"></rect>
        <rect width="64" height="73" y="29" fill="#C2CAD5" fill-rule="nonzero" rx="4"></rect>
        <g fill-rule="nonzero">
          <path fill="#9A1628" d="M9 72h16v17a2 2 0 0 1-2 2H11a2 2 0 0 1-2-2V72zm30 0h16v17a2 2 0 0 1-2 2H41a2 2 0 0 1-2-2V72z"></path>
          <path fill="#D70926" d="M9 82h16v7a2 2 0 0 1-2 2H11a2 2 0 0 1-2-2v-7zm30 0h16v7a2 2 0 0 1-2 2H41a2 2 0 0 1-2-2v-7z"></path>
        </g>
        <g fill-rule="nonzero">
          <path fill="#9A1628" d="M4 68h56v-5a4 4 0 0 0-4-4H8a4 4 0 0 0-4 4v5z"></path>
          <path fill="#D70926" d="M4 73h56v-5a4 4 0 0 0-4-4H8a4 4 0 0 0-4 4v5z"></path>
        </g>
        <path fill="#232835" fill-rule="nonzero" d="M47 11V8a1 1 0 0 1 2 0v3h3a1 1 0 0 1 0 2h-3v3a1 1 0 0 1-2 0v-3h-3a1 1 0 0 1 0-2h3zm-31 0V8a1 1 0 0 1 2 0v3h3a1 1 0 0 1 0 2h-3v3a1 1 0 0 1-2 0v-3h-3a1 1 0 0 1 0-2h3zm0 105v-3a1 1 0 1 1 2 0v3h3a1 1 0 1 1 0 2h-3v3a1 1 0 1 1-2 0v-3h-3a1 1 0 1 1 0-2h3zm31 0v-3a1 1 0 1 1 2 0v3h3a1 1 0 1 1 0 2h-3v3a1 1 0 1 1-2 0v-3h-3a1 1 0 1 1 0-2h3z"></path>
        <rect width="21" height="4" x="7" y="36" fill="#D70926" fill-rule="nonzero" rx="2"></rect>
        <rect width="21" height="4" x="7" y="42" fill="#D70926" fill-rule="nonzero" rx="2"></rect>
        <rect width="15" height="4" x="7" y="48" fill="#D70926" fill-rule="nonzero" rx="2"></rect>
      </g>
      <path fill-rule="nonzero" stroke="#FFF" stroke-linecap="round" stroke-linejoin="round" stroke-width="2" d="M176 167c10.333 9.667 16.333 18.167 18 25.5 1.667 7.333.333 13.667-4 19"></path>
      <path fill-rule="nonzero" stroke="#FFF" stroke-linecap="round" stroke-linejoin="round" d="M194 179c2.745 4.91 4.566 9.676 5.463 14.3.897 4.624.573 8.857-.971 12.7"></path>
      <path fill-rule="nonzero" stroke="#FFF" stroke-linecap="round" stroke-linejoin="round" stroke-width="2" d="M16 71c1.333 7.667 6.167 17.333 14.5 29"></path>
      <path fill="#FFF" fill-rule="nonzero" d="M189.283 177.677l5.446 8.387-5.283 1.046-5.446-8.387zM21.064 80.13l3.63 5.59-5.758 2.15-3.63-5.59z"></path>
    </g>
  </symbol>
  <symbol xmlns="http://www.w3.org/2000/svg" viewBox="0 0 257 230" id="spr-stages-repairs">
    <g fill="none">
      <path fill="#BBE5EE" d="M239.5 128.167v80.449a5 5 0 0 1-6.37 4.808l-105.5-30.067a5 5 0 0 1-3.63-4.809V9.874a5 5 0 0 1 8.72-3.34L237.71 123.49a7 7 0 0 1 1.79 4.676z" opacity=".6"></path>
      <path fill="#BBE5EE" d="M149.923 116.432V79.368a5 5 0 0 1 8.811-3.236l97 114.224a5 5 0 0 1 1.189 3.237v29.484a5 5 0 0 1-6.346 4.815l-94.308-26.362a5 5 0 0 0-6.346 4.815v8.926a5 5 0 0 1-6.171 4.861L29.829 192.679A5 5 0 0 1 26 187.818V22a5 5 0 0 1 8.444-3.625l107.035 101.682a5 5 0 0 0 8.444-3.625z"></path>
      <path fill="#FFF" d="M76.022 86.296l3.026 5.94-6.842 1.99-3.027-5.94zm28.62-30.93l1.311-.069a3.3 3.3 0 0 1 3.372 2.487l5.805 22.955 2.64-.138a2.479 2.479 0 0 1 .26 4.95l-2.64.139 4.946 94.377a3.3 3.3 0 0 1-.008.461l-2.941 33.485a3.3 3.3 0 0 1-3.115 3.006l-1.155.06-2.251.119a3.3 3.3 0 0 1-3.412-2.665l-6.425-32.993a3.3 3.3 0 0 1-.057-.458l-4.946-94.377-2.64.138a2.479 2.479 0 0 1-.259-4.95l2.64-.139 3.373-23.437a3.3 3.3 0 0 1 3.094-2.825l2.408-.126z"></path>
      <path stroke="#D70926" stroke-width="4.4" d="M109.752 197.846c1.126 8.015-25.621 15.274-39.978 3.394-12.513-10.355-8.392-24.407-10.843-57.435C55.502 97.6 52.77 72.363 36.46 78.548c-16.31 6.186 3.328 47.343 28.824 71.026 25.495 23.684 25.447 50.945 11.861 52.855-13.586 1.909-23.327-20.083-14.786-65.78 8.54-45.698-5.416-54.305-17.685-50.912-12.269 3.393 1.778 48.14 22.298 75.849 12.142 16.396 17.254 40.054 9.853 46.45-6.918 5.978-18.63 1.506-23.04-6.218"></path>
      <g transform="scale(-1 1) rotate(3 -52.851 -2178.566)">
        <rect width="3.293" height="30.845" x="13.171" fill="#D8D8D8" rx="1.646"></rect>
        <rect width="5.488" height="30.845" x="12.073" y="18.727" fill="#D70926" rx="2.2"></rect>
        <path fill="#2068BC" d="M15.366 38.556h1.313a3.3 3.3 0 0 1 3.237 2.66l4.596 23.228h2.644a2.479 2.479 0 1 1 0 4.957h-2.644v94.507a3.3 3.3 0 0 1-.032.46l-4.69 33.284a3.3 3.3 0 0 1-3.267 2.84h-3.411a3.3 3.3 0 0 1-3.268-2.84l-4.69-33.284a3.3 3.3 0 0 1-.032-.46V69.4H2.479a2.479 2.479 0 1 1 0-4.957h2.643l4.596-23.228a3.3 3.3 0 0 1 3.237-2.66h2.41z"></path>
        <rect width="14.268" height="87.027" x="7.683" y="71.604" fill="#232835" rx="2.2"></rect>
        <ellipse cx="17.012" cy="79.866" fill="#D70926" rx="2.744" ry="2.754"></ellipse>
        <ellipse cx="17.012" cy="90.882" fill="#D70926" rx="2.744" ry="2.754"></ellipse>
        <ellipse cx="17.012" cy="101.898" fill="#D70926" rx="2.744" ry="2.754"></ellipse>
      </g>
      <g transform="scale(-1 1) rotate(22 -187.347 3.613)">
        <rect width="2.195" height="30.845" x="10.976" fill="#D8D8D8" rx="1.098"></rect>
        <path fill="#232835" d="M14.373 16.166l1.725 27.663 6.74 2.316a1.938 1.938 0 0 1 1.308 1.833c0 .833-.513 1.58-1.29 1.88l-4.459 1.716-2.247 86.307-4.077 1.107-4.076-1.107-2.248-86.307-4.458-1.716A2.014 2.014 0 0 1 0 47.978c0-.827.525-1.564 1.308-1.833l6.74-2.316 1.726-27.663a3.93 3.93 0 0 1 4.599 0z"></path>
      </g>
      <g transform="scale(-1 1) rotate(-8 2.628 1775.728)">
        <path fill="#232835" d="M46.199 4.113h8.087a2.06 2.06 0 0 0 1.455-.602l2.916-2.91A2.06 2.06 0 0 1 60.112 0H74.72l3.608 4.113c6.577 0 12.227 4.665 13.458 11.112l4.062 21.28 4.638 4.113v45.76l-3.607 3.598.987 105.888a10.273 10.273 0 0 1-3.434 7.759l-13.17 11.757A10.32 10.32 0 0 1 74.39 218H26.096a10.32 10.32 0 0 1-6.872-2.62l-13.17-11.757a10.273 10.273 0 0 1-3.434-7.76l.987-105.887L0 86.377v-45.76l4.638-4.112L8.7 15.225C9.931 8.778 15.58 4.113 22.158 4.113L25.765 0h14.608a2.06 2.06 0 0 1 1.455.602l2.916 2.91c.386.385.91.601 1.455.601z"></path>
        <rect width="4" height="48" x="90.01" y="139.861" fill="#7F7F7F" rx="2"></rect>
        <rect width="7" height="7" x="87" y="193" fill="#7F7F7F" rx="3.5"></rect>
        <path fill="#D51B28" d="M0 86.377v-45.76l15.974-14.746L20.96 4.165a13.83 13.83 0 0 1 1.198-.052L25.765 0h14.606c.546 0 1.07.217 1.457.602l2.915 2.909c.387.386.911.602 1.458.602h8.083a2.06 2.06 0 0 0 1.457-.602L58.656.602A2.067 2.067 0 0 1 60.114 0h14.605l3.12 3.558 5.125 22.313 17.52 14.747v45.76l-13.913 13.53-2.576 86.378L68.02 198.11H30.918l-15.974-11.825-2.577-86.378L0 86.378z"></path>
        <rect width="7" height="4" x="58.741" y="18.702" fill="#FFF" rx="2"></rect>
        <rect width="7" height="4" x="45.741" y="18.702" fill="#FFF" rx="2"></rect>
        <rect width="7" height="4" x="32.589" y="18.873" fill="#FFF" rx="2"></rect>
        <path fill="#646C78" d="M13.398 31.877h73.173v61.698H13.398z"></path>
        <rect width="60.806" height="45.245" x="19.582" y="40.104" fill="#BBE5EE" rx="2.06"></rect>
        <rect width="2" height="12" x="58.832" y="55.408" fill="#646C78" rx="1"></rect>
        <rect width="4" height="22" x="52.832" y="50.408" fill="#646C78" rx="2"></rect>
        <rect width="2" height="10" x="47.832" y="56.408" fill="#646C78" rx="1"></rect>
        <rect width="4" height="16" x="40.832" y="53.408" fill="#646C78" rx="2"></rect>
        <path fill="#232835" d="M22.176 106H78.63a2.06 2.06 0 0 1 2.057 2.172l-2.866 52.437a2.06 2.06 0 0 1-2.057 1.948H25.042a2.06 2.06 0 0 1-2.057-1.948l-2.866-52.437A2.06 2.06 0 0 1 22.176 106z"></path>
        <path fill="#7F7F7F" d="M64.812 118.826v5.766c0 .456-.151.9-.431 1.26l-3.089 3.98c-.39.502-.992.797-1.63.797H43.137a2.063 2.063 0 0 1-1.632-.8l-3.075-3.978a2.054 2.054 0 0 1-.429-1.256v-5.771c0-.47.161-.926.457-1.292l3.047-3.767a2.063 2.063 0 0 1 1.604-.765H59.69c.621 0 1.21.28 1.601.762l3.06 3.77c.298.366.46.823.46 1.294z"></path>
      </g>
      <path stroke="#FFF" stroke-linecap="round" stroke-linejoin="round" stroke-width="2" d="M58.5 74.622c11.22 1.683 20.195 19.074 17.39 35.903"></path>
      <path stroke="#FFF" stroke-linecap="round" stroke-linejoin="round" d="M75 78c6.17 5.049 8.976 16.269 8.976 21.879"></path>
    </g>
  </symbol>
  <symbol xmlns="http://www.w3.org/2000/svg" viewBox="0 0 426.667 426.667" id="spr-star-grey">
    <path fill="#dfe0e0" d="M213.333 10.441l65.916 133.576 147.418 21.419L320 269.41l25.173 146.816-131.84-69.316-131.848 69.316 25.182-146.816L0 165.436l147.409-21.419z"></path>
  </symbol>
  <symbol xmlns="http://www.w3.org/2000/svg" viewBox="0 0 2666.669 426.667" id="spr-star-grey-5">
    <path fill="#dfe0e0" d="M266.667 10.441l65.916 133.576L480 165.436 373.334 269.41l25.173 146.816-131.84-69.316-131.848 69.316L160 269.41 53.334 165.436l147.409-21.419zm533.334 0l65.916 133.576 147.418 21.419L906.668 269.41l25.173 146.816-131.84-69.316-131.848 69.316 25.182-146.816-106.667-103.974 147.41-21.419zm533.335 0l65.916 133.576 147.418 21.419-106.667 103.974 25.173 146.816-131.84-69.316-131.848 69.316 25.182-146.816-106.667-103.974 147.409-21.419zm533.334 0l65.916 133.576 147.418 21.419-106.667 103.974 25.173 146.816-131.84-69.316-131.848 69.316 25.182-146.816-106.667-103.974 147.41-21.419zm533.335 0l65.916 133.576 147.418 21.419-106.667 103.974 25.173 146.816-131.84-69.316-131.848 69.316 25.182-146.816-106.667-103.974 147.409-21.419z"></path>
  </symbol>
  <symbol xmlns="http://www.w3.org/2000/svg" viewBox="0 0 426.667 426.667" id="spr-star-red">
    <path fill="#d70926" d="M213.333 10.441l65.916 133.576 147.418 21.419L320 269.41l25.173 146.816-131.84-69.316-131.848 69.316 25.182-146.816L0 165.436l147.409-21.419z"></path>
  </symbol>
  <symbol xmlns="http://www.w3.org/2000/svg" viewBox="0 0 2666.669 426.667" id="spr-star-red-5">
    <path fill="#d70926" d="M266.667 10.441l65.916 133.576L480 165.436 373.334 269.41l25.173 146.816-131.84-69.316-131.848 69.316L160 269.41 53.334 165.436l147.409-21.419zm533.334 0l65.916 133.576 147.418 21.419L906.668 269.41l25.173 146.816-131.84-69.316-131.848 69.316 25.182-146.816-106.667-103.974 147.41-21.419zm533.335 0l65.916 133.576 147.418 21.419-106.667 103.974 25.173 146.816-131.84-69.316-131.848 69.316 25.182-146.816-106.667-103.974 147.409-21.419zm533.334 0l65.916 133.576 147.418 21.419-106.667 103.974 25.173 146.816-131.84-69.316-131.848 69.316 25.182-146.816-106.667-103.974 147.41-21.419zm533.335 0l65.916 133.576 147.418 21.419-106.667 103.974 25.173 146.816-131.84-69.316-131.848 69.316 25.182-146.816-106.667-103.974 147.409-21.419z"></path>
  </symbol>
  <symbol xmlns="http://www.w3.org/2000/svg" viewBox="0 0 69 69" id="spr-video">
    <path fill="#FFF" d="M34.5 69C15.446 69 0 53.554 0 34.5 0 15.446 15.446 0 34.5 0 53.554 0 69 15.446 69 34.5 69 53.554 53.554 69 34.5 69zm14.963-31.952a2.4 2.4 0 0 0 0-4.293L25.938 20.992a2.4 2.4 0 0 0-3.473 2.147v23.524a2.4 2.4 0 0 0 3.473 2.147l23.525-11.762z"></path>
  </symbol>
  <symbol xmlns="http://www.w3.org/2000/svg" viewBox="0 0 42 42" id="spr-vk">
    <g fill="none" fill-rule="evenodd">
      <path fill-rule="nonzero" stroke="#c7c7c7" d="M37.024 1H4.937A3.937 3.937 0 0 0 1 4.937v32.087a3.937 3.937 0 0 0 3.937 3.937h32.087a3.937 3.937 0 0 0 3.937-3.937V4.937A3.937 3.937 0 0 0 37.024 1"></path>
      <path fill="#c7c7c7" d="M20.657 30.055h1.803s.544-.06.823-.36c.256-.275.248-.792.248-.792s-.036-2.42 1.087-2.776c1.107-.35 2.529 2.339 4.035 3.373 1.14.782 2.005.611 2.005.611l4.03-.056s2.107-.13 1.107-1.787c-.082-.136-.582-1.226-2.995-3.466-2.527-2.345-2.188-1.965.855-6.021 1.853-2.47 2.594-3.978 2.363-4.624-.22-.615-1.584-.453-1.584-.453l-4.536.029s-.337-.046-.586.103c-.244.146-.4.487-.4.487s-.719 1.91-1.676 3.536c-2.02 3.43-2.827 3.612-3.157 3.398-.769-.496-.577-1.993-.577-3.057 0-3.325.505-4.71-.981-5.07-.493-.118-.857-.197-2.118-.21-1.618-.016-2.988.005-3.764.386-.516.252-.914.815-.671.848.3.04.978.183 1.338.672.465.633.449 2.053.449 2.053s.267 3.913-.624 4.399c-.611.333-1.45-.347-3.25-3.46-.923-1.593-1.62-3.355-1.62-3.355s-.134-.33-.374-.506c-.29-.213-.697-.28-.697-.28l-4.31.027s-.647.018-.885.3c-.211.25-.017.768-.017.768s3.375 7.895 7.196 11.874c3.504 3.648 7.483 3.409 7.483 3.409"></path>
    </g>
  </symbol>
  <symbol xmlns="http://www.w3.org/2000/svg" viewBox="0 0 40 40" id="spr-zoom">
    <g fill="none" fill-rule="evenodd" stroke="#FFF" stroke-linecap="round" stroke-linejoin="round" stroke-width="2">
      <circle cx="16" cy="16" r="13"></circle>
      <path d="M10.5 16.5h11.201M16 11v11.201M25 26l11.54 11.54"></path>
    </g>
  </symbol>
  <symbol xmlns="http://www.w3.org/2000/svg" viewBox="0 0 24 24" id="spr-add">
    <path d="M3.5 11.5h17.202m-8.952-8v17.202" fill="none" fill-rule="evenodd" stroke-linecap="square" stroke-linejoin="round" stroke-width="2"></path>
  </symbol>
  <symbol xmlns="http://www.w3.org/2000/svg" viewBox="0 0 16 16" id="spr-arrow-down">
    <path fill="none" stroke-width="2" d="M13.314 5.657l-5.657 5.657L2 5.657"></path>
  </symbol>
  <symbol xmlns="http://www.w3.org/2000/svg" viewBox="0 0 24 24" id="spr-bell">
    <g fill="none" fill-rule="evenodd" stroke-width="2">
      <path d="M7.186 10.698l.967-3.88a5 5 0 1 1 9.703 2.418l-.967 3.881m1.701 5.578a3 3 0 0 1-2.185-3.637l.484-1.94"></path>
      <path d="M18.59 18.695L3.065 14.824a3 3 0 0 0 3.637-2.185l.484-1.94m.975 8.487s.627 1.187 1.699 1.455c1.072.267 2.182-.487 2.182-.487"></path>
    </g>
  </symbol>
  <symbol xmlns="http://www.w3.org/2000/svg" viewBox="0 0 50 43" id="spr-burger">
    <path d="M0 0v5h50V0H0zm0 24h50v-5H0v5zm0 19h50v-5H0v5z"></path>
  </symbol>
  <symbol xmlns="http://www.w3.org/2000/svg" viewBox="0 0 24 24" id="spr-close">
    <path d="M4.438 3.938l16.47 16.47m-.346-16.47l-16.47 16.47" fill="none" fill-rule="evenodd" stroke="#7F7F7F" stroke-linecap="square" stroke-width="2"></path>
  </symbol>
  <symbol xmlns="http://www.w3.org/2000/svg" viewBox="0 0 36 33" id="spr-comm">
    <path d="M3.328 0h10.987c.564 0 1.022.377 1.022.842 0 .105-.025.21-.071.308L8.643 15.013c-.207.433.051.921.577 1.092.119.038.246.058.374.058h1.524c.565 0 1.022.377 1.022.842a.72.72 0 0 1-.097.357l-8.63 15.154c-.24.42-.848.602-1.359.404-.411-.159-.646-.522-.576-.892l2.828-14.893c.087-.46-.295-.89-.852-.962a1.237 1.237 0 0 0-.158-.01H1.022c-.564 0-1.022-.377-1.022-.842a.69.69 0 0 1 .009-.11L2.314.733C2.381.313 2.814 0 3.328 0zm20 0h10.987c.564 0 1.022.377 1.022.842 0 .105-.025.21-.071.308l-6.623 13.863c-.207.433.051.921.577 1.092.119.038.246.058.374.058h1.524c.565 0 1.022.377 1.022.842a.72.72 0 0 1-.097.357l-8.63 15.154c-.24.42-.848.602-1.359.404-.411-.159-.646-.522-.576-.892l2.828-14.893c.087-.46-.295-.89-.852-.962a1.237 1.237 0 0 0-.158-.01h-2.274c-.564 0-1.022-.377-1.022-.842a.69.69 0 0 1 .009-.11L22.314.733c.067-.419.5-.732 1.014-.732z"
      fill="#D70926"></path>
  </symbol>
  <symbol xmlns="http://www.w3.org/2000/svg" viewBox="0 0 24 24" id="spr-comment">
    <path fill="none" fill-rule="evenodd" stroke="#7F7F7F" stroke-linecap="round" stroke-linejoin="round" stroke-width="2" d="M19 17v3l-3.5-3H6a2 2 0 0 1-2-2V6a2 2 0 0 1 2-2h13a2 2 0 0 1 2 2v9a2 2 0 0 1-2 2z"></path>
  </symbol>
  <symbol xmlns="http://www.w3.org/2000/svg" viewBox="0 0 29.263 29.263" id="spr-cross">
    <path d="M28.764 26.407L16.988 14.631 28.774 2.845A1.666 1.666 0 1 0 26.419.489L14.632 12.275 2.856.499A1.666 1.666 0 1 0 .499 2.856l11.776 11.776L.489 26.418a1.666 1.666 0 1 0 2.355 2.355L14.63 16.988l11.776 11.776c.65.65 1.705.65 2.355-.001a1.663 1.663 0 0 0 .003-2.356z"></path>
  </symbol>
  <symbol xmlns="http://www.w3.org/2000/svg" viewBox="0 0 24 24" id="spr-dislike">
    <path d="M14.714 14.634c.145.861.29 3.072-.008 4.522-.18.881-.48 1.437-.798 1.79-.521.654-1.32.917-1.929.582a1.17 1.17 0 0 1-.244-.179c-.247-.234-.392-.572-.426-.95a1.94 1.94 0 0 1-.008-.207c-.005-.387.03-.9.103-1.59-.26-1.786-1.314-3.501-1.712-4.097l-.505-.02a.392.392 0 0 1-.377-.39v-8.68c0-.607.525-.606.525-.606h9.074a1.15 1.15 0 0 1 1.149 1.15v1.307c.634 0 .693.514.693 1.149v1.307c.634 0 .53.514.53 1.149v1.308c.635 0 .775.513.775 1.148v.159c0 .634-.514 1.148-1.148 1.148h-5.694zM5.725 14V4.92"
      fill="none" fill-rule="evenodd" stroke-linecap="round" stroke-linejoin="round" stroke-width="2"></path>
  </symbol>
  <symbol xmlns="http://www.w3.org/2000/svg" viewBox="0 0 24 24" id="spr-download">
    <path d="M3.5 20.5h17.202M12 3.549v11.39m3.485-2.575l-3.535 3.535-3.536-3.535" fill="none" fill-rule="evenodd" stroke-linecap="square" stroke-linejoin="round" stroke-width="2"></path>
  </symbol>
  <symbol xmlns="http://www.w3.org/2000/svg" viewBox="0 0 24 24" id="spr-edit">
    <g fill="none" fill-rule="evenodd" stroke="#7F7F7F" stroke-linejoin="round" stroke-width="2">
      <path stroke-linecap="round" d="M19.435 3l2.121 2.121L8.121 18.556 6 16.435z"></path>
      <path stroke-linecap="square" d="M5.85 20.828l-2.524.379.402-2.5"></path>
      <path stroke-linecap="round" d="M16.967 5.967l1.69 1.69"></path>
    </g>
  </symbol>
  <symbol xmlns="http://www.w3.org/2000/svg" viewBox="0 0 42 42" id="spr-fb">
    <g fill="none" fill-rule="evenodd">
      <path stroke="#c7c7c7" d="M37.024 1H4.937A3.937 3.937 0 0 0 1 4.937v32.087a3.937 3.937 0 0 0 3.937 3.937h32.087a3.937 3.937 0 0 0 3.937-3.937V4.937A3.937 3.937 0 0 0 37.024 1"></path>
      <path fill="#c7c7c7" d="M23.218 35.973V22.789h4.425l.663-5.138h-5.088v-3.28c0-1.488.413-2.502 2.546-2.502h2.721V7.272c-.47-.063-2.086-.203-3.964-.203-3.923 0-6.609 2.395-6.609 6.792v3.79h-4.436v5.137h4.436v13.184h5.306z"></path>
    </g>
  </symbol>
  <symbol xmlns="http://www.w3.org/2000/svg" xmlns:xlink="http://www.w3.org/1999/xlink" viewBox="0 0 16 16" id="spr-geo">
    <defs>
      <path id="spr-a" d="M7.962 6.25a1.74 1.74 0 0 0-1.73-1.75A1.74 1.74 0 0 0 4.5 6.25a1.74 1.74 0 0 0 1.731 1.748A1.74 1.74 0 0 0 7.962 6.25zm1 0a2.74 2.74 0 0 1-2.73 2.748A2.74 2.74 0 0 1 3.5 6.25 2.74 2.74 0 0 1 6.231 3.5a2.74 2.74 0 0 1 2.731 2.75zM6.206 1C3.326 1 1 3.256 1 6.028c0 .549.082 1.12.239 1.71.361 1.361 1.104 2.789 2.115 4.233a24.064 24.064 0 0 0 2.31 2.808.776.776 0 0 0 1.085 0 21.526 21.526 0 0 0 .73-.794 24.064 24.064 0 0 0 1.58-2.014c1.01-1.444 1.754-2.872 2.115-4.233a6.67 6.67 0 0 0 .238-1.71C11.412 3.256 9.087 1 6.206 1zm0-1c3.422 0 6.206 2.693 6.206 6.028a7.66 7.66 0 0 1-.272 1.966c-.382 1.441-1.149 2.96-2.262 4.55a25.04 25.04 0 0 1-2.194 2.704 7.753 7.753 0 0 1-.227.236 1.776 1.776 0 0 1-2.502 0 22.538 22.538 0 0 1-.774-.842 25.04 25.04 0 0 1-1.646-2.097C1.42 10.954.655 9.435.272 7.994A7.66 7.66 0 0 1 0 6.028C0 2.693 2.784 0 6.206 0z"></path>
    </defs>
    <use fill="#979797" xlink:href="#a" transform="translate(2)"></use>
  </symbol>
</svg>