<svg xmlns="http://www.w3.org/2000/svg" width="262" height="65" viewBox="0 0 262 65">
    <g fill="none" fill-rule="evenodd">
        <path fill="#FFF" d="M36.035 36.289l-4.99-2.88a.648.648 0 0 0-.804.13c-1.337 1.486-3.534 2.525-6.226 2.525-.602 0-1.184-.041-1.747-.12a7.115 7.115 0 0 1-2.118-.522 7.613 7.613 0 0 1-1.241-.602H9.565c2.479 4.869 7.532 8.096 14.333 8.096 5.33 0 9.555-2.055 12.324-5.662a.653.653 0 0 0-.187-.965M17.62 28.15l2.014 2.014-3.927.494a9.306 9.306 0 0 1-.586-3.268 9.22 9.22 0 0 1 1.157-4.504c.929-1.94 2.522-3.252 4.642-3.799.06-.017.12-.03.18-.048l.092-.024a7.118 7.118 0 0 1 1.71-.209h.033c.125-.004.249-.01.377-.01 2.67 0 5.336 1.215 6.666 4.133l-12.1 4.151a.645.645 0 0 0-.257 1.07m19.599-6.205c-2.01-5.843-7.204-9.943-13.908-9.943-9.192 0-15.456 6.732-15.456 15.457 0 1.52.192 2.976.555 4.35L.139 32.86c-.193.018-.181.301.012.303l25.802.02a.637.637 0 0 0 .504-1.04l-2.14-2.444 6.143-.307 7.025-.406a.653.653 0 0 0 .613-.615 16.908 16.908 0 0 0-.878-6.426"/>
        <path fill="#1E1E1E" d="M107.064 41.859L96.597 28.805v12.66a.63.63 0 0 1-.63.63h-6.295a.629.629 0 0 1-.629-.63V1.74c0-.347.282-.628.63-.628h6.294c.348 0 .63.28.63.628V25.7l9.881-12.638a.626.626 0 0 1 .495-.241h7.39c.528 0 .82.615.486 1.026l-10.933 13.436 11.28 13.785a.629.629 0 0 1-.487 1.027h-7.155a.625.625 0 0 1-.49-.236M190.866 41.859l-10.467-13.054v12.66a.628.628 0 0 1-.629.63h-6.295a.629.629 0 0 1-.629-.63V1.74c0-.346.282-.627.629-.627h6.295c.348 0 .629.28.629.627V25.7l9.881-12.637a.628.628 0 0 1 .496-.241h7.387a.63.63 0 0 1 .488 1.026l-10.933 13.435 11.279 13.785a.63.63 0 0 1-.487 1.027h-7.154a.63.63 0 0 1-.49-.236M126.76 20.082V32.26c0 2.995 2.054 3.204 5.959 3.019a.627.627 0 0 1 .657.627v5.621a.633.633 0 0 1-.57.627c-10.155.998-13.6-2.135-13.6-9.894V4.144c0-.277.183-.522.449-.601l6.294-2.404a.629.629 0 0 1 .81.601v11.082h4.17c.284 0 .533.19.607.463l1.625 6.002a.63.63 0 0 1-.607.795h-5.794zM155.352 12.885v7.1a.623.623 0 0 1-.656.625c-3.799-.205-8.243 1.683-8.243 7.492v13.365a.629.629 0 0 1-.629.628h-6.295a.628.628 0 0 1-.629-.628V13.45c0-.347.281-.628.63-.628h6.294c.347 0 .63.28.63.628v4.405c1.43-3.74 4.77-5.412 8.227-5.602a.634.634 0 0 1 .671.63M160.433 12.822h6.296c.347 0 .63.281.63.63v28.014a.629.629 0 0 1-.63.63h-6.296a.628.628 0 0 1-.629-.63V13.451c0-.348.281-.629.63-.629m-1.508-8.139c0-2.517 2.108-4.683 4.625-4.683 2.576 0 4.684 2.166 4.684 4.683 0 2.518-2.108 4.625-4.684 4.625-2.517 0-4.625-2.107-4.625-4.625M43.093 1.11h6.294c.349 0 .63.28.63.627v39.725a.628.628 0 0 1-.63.63h-6.294a.628.628 0 0 1-.629-.63V1.737c0-.347.282-.628.63-.628M231.089 12.885v7.1a.623.623 0 0 1-.656.625c-3.8-.205-8.242 1.683-8.242 7.492v13.365a.63.63 0 0 1-.63.628h-6.295a.629.629 0 0 1-.63-.628V13.45c0-.347.283-.628.63-.628h6.296a.63.63 0 0 1 .629.628v4.405c1.429-3.74 4.769-5.412 8.227-5.602a.634.634 0 0 1 .67.63M201.34 37.878a4.973 4.973 0 0 1 4.977-4.976 4.972 4.972 0 0 1 4.976 4.976 4.971 4.971 0 0 1-4.976 4.977 4.973 4.973 0 0 1-4.976-4.977M261.665 13.451v28.015a.628.628 0 0 1-.63.63c-.6 0-6.923-2.52-6.923-2.52-1.756 2.634-4.801 3.34-8.722 3.34-6.207 0-11.066-4.335-11.066-12.12V13.45c0-.348.28-.629.628-.629h6.295c.348 0 .629.281.629.63v16.405c0 3.982 2.4 6.031 5.797 6.031 3.687 0 6.439-2.166 6.439-7.259V13.451c0-.348.282-.629.629-.629h6.295c.348 0 .629.281.629.63M61.925 27.492c0-1.127.046-1.846.3-2.785h-.007c.01-.045.028-.082.039-.127.005-.018.007-.033.013-.05h.004c.923-3.634 3.64-5.737 7.613-5.737 2.652 0 5.297 1.207 6.635 4.084l-14.585 5.037c-.004-.14-.012-.274-.012-.422m20.348 8.601l-4.668-2.69a.619.619 0 0 0-.774.118c-1.336 1.496-3.54 2.543-6.241 2.543-2.754 0-5.124-.807-6.685-2.57l13.816-4.772 6.312-2.18.01-.004a.766.766 0 0 0 .553-.698c-.174-1.885-.634-3.665-1.367-5.28-2.313-5.09-7.185-8.558-13.342-8.558-9.191 0-15.457 6.732-15.457 15.456 0 8.723 6.206 15.457 16.042 15.457 5.349 0 9.585-2.068 12.353-5.699.227-.299.129-.728-.552-1.123M16.32 58.2c-.309-1.77-1.606-2.53-2.945-2.53-1.668 0-2.8.988-3.11 2.53h6.055zm-2.739 4.243c1.236 0 2.162-.554 2.657-1.275l1.833 1.07c-.948 1.4-2.492 2.244-4.51 2.244-3.399 0-5.602-2.326-5.602-5.416 0-3.047 2.203-5.416 5.437-5.416 3.07 0 5.17 2.47 5.17 5.438 0 .308-.042.638-.083.925h-8.197c.35 1.608 1.647 2.43 3.295 2.43zM19.907 59.066c0-3.068 2.328-5.416 5.438-5.416 2.018 0 3.768 1.05 4.593 2.656l-1.916 1.114c-.453-.97-1.462-1.586-2.697-1.586-1.813 0-3.194 1.378-3.194 3.232 0 1.854 1.38 3.234 3.194 3.234 1.235 0 2.244-.638 2.739-1.586l1.915 1.092c-.866 1.627-2.616 2.676-4.634 2.676-3.11 0-5.438-2.367-5.438-5.416M39.864 56.06h-3.357v8.154h-2.224V56.06h-3.377v-2.143h8.958zM47.322 60.818c0-.865-.68-1.4-1.545-1.4H43.49v2.8h2.287c.865 0 1.545-.556 1.545-1.4m2.183 0c0 2.018-1.565 3.396-3.748 3.396h-4.49V53.918h2.223v3.502h2.267c2.183 0 3.748 1.359 3.748 3.398M62.916 64.214l-4.222-4.758v4.758H56.47V53.917h2.224v4.551l3.996-4.55h2.72l-4.532 5.046 4.695 5.25zM74.434 59.066c0-1.873-1.4-3.254-3.213-3.254-1.81 0-3.212 1.38-3.212 3.254 0 1.875 1.401 3.254 3.212 3.254 1.813 0 3.213-1.38 3.213-3.254m-8.649 0c0-3.068 2.43-5.416 5.436-5.416 3.028 0 5.438 2.348 5.438 5.416 0 3.049-2.41 5.416-5.438 5.416-3.006 0-5.436-2.367-5.436-5.416M87.745 53.917v10.297H85.52v-4.097h-4.716v4.098H78.58V53.916h2.225v4.099h4.716v-4.099zM98.097 56.06h-3.355v8.154h-2.226V56.06H89.14v-2.143h8.959zM107.635 59.066c0-1.914-1.4-3.295-3.254-3.295-1.853 0-3.254 1.38-3.254 3.295 0 1.916 1.401 3.295 3.255 3.295 1.853 0 3.253-1.38 3.253-3.295zm2.224-5.148v10.296h-2.224v-1.482c-.782 1.092-1.998 1.75-3.604 1.75-2.8 0-5.127-2.367-5.127-5.416 0-3.068 2.327-5.416 5.127-5.416 1.606 0 2.822.658 3.604 1.73v-1.462h2.224zM118.86 64.214l-4.222-4.758v4.758h-2.224V53.917h2.224v4.551l3.995-4.55h2.72l-4.532 5.046 4.695 5.25zM131.255 56.06H127.9v8.154h-2.225V56.06h-3.377v-2.143h8.958z"/>
    </g>
</svg>
