<svg xmlns="http://www.w3.org/2000/svg" width="18" height="18" viewBox="0 0 18 18"><g><g><g><path fill="#6e6b6d" d="M9 16.945a7.912 7.912 0 0 1-5.23-1.97L14.976 3.77A7.911 7.911 0 0 1 16.946 9c0 4.381-3.565 7.945-7.946 7.945zm.681-9.372a1.584 1.584 0 0 0-2.109 2.109l-.77.77A2.62 2.62 0 0 1 6.362 9 2.64 2.64 0 0 1 9 6.363a2.62 2.62 0 0 1 1.453.438zM1.055 9c0-4.381 3.564-7.945 7.945-7.945 2.001 0 3.832.744 5.23 1.97l-2.09 2.09c-1.048-.567-2.112-.861-3.14-.861-1.518 0-3.123.641-4.64 1.854a11.85 11.85 0 0 0-1.936 1.946L1.718 9l.706.946a11.847 11.847 0 0 0 2.51 2.374l-1.91 1.91A7.911 7.911 0 0 1 1.054 9zm14.302-6.357A8.936 8.936 0 0 0 9 0a8.936 8.936 0 0 0-6.357 2.643A8.936 8.936 0 0 0 0 9c0 2.395.939 4.652 2.643 6.357A8.936 8.936 0 0 0 9 18a8.936 8.936 0 0 0 6.357-2.643A8.936 8.936 0 0 0 18 9a8.936 8.936 0 0 0-2.643-6.357z"/></g><g><path fill="#6e6b6d" d="M15.69 8.218a10.943 10.943 0 0 0-1.543-1.613l-2.152 2.152a2.48 2.48 0 0 1-2.803 2.803l-1.636 1.636c.669.245 1.336.37 1.987.37 1.427 0 2.93-.602 4.346-1.743a11.084 11.084 0 0 0 1.8-1.827l.664-.89z"/></g></g></g></svg>