<svg xmlns="http://www.w3.org/2000/svg" width="16" height="14" viewBox="0 0 16 14"><g><g><g><path fill="#aaa7a9" d="M8.173 0c-3.845 0-6.985 3.127-7 6.971v.074c0 .147-.1.218-.298.218H.25c-.12 0-.2.041-.234.117-.053.113.033.238.068.282l1.697 2.678.01.014a.224.224 0 0 0 .165.082c.049 0 .119-.019.18-.11l1.676-2.65c.04-.046.132-.176.08-.292-.035-.079-.117-.121-.243-.121h-.631c-.189 0-.298-.045-.298-.291 0-2.993 2.446-5.426 5.452-5.426A5.458 5.458 0 0 1 13.624 7a5.458 5.458 0 0 1-7.75 4.945.778.778 0 0 0-1.029.375.775.775 0 0 0 .374 1.028A6.942 6.942 0 0 0 8.173 14c3.86 0 7-3.14 7-7s-3.14-7-7-7z"/></g><g><path fill="#aaa7a9" d="M7.29 3.443c-.478 0-.865.304-.865.679v2.852c0 .356.256.726.639.92l3.16 1.597c.144.073.307.108.467.108.284 0 .563-.11.728-.311.259-.316.143-.736-.259-.939L8.155 6.83V4.123c0-.375-.388-.68-.865-.68z"/></g></g></g></svg>