<svg xmlns="http://www.w3.org/2000/svg" width="18" height="19" viewBox="0 0 18 19"><g><g><path fill="#120d13" d="M16.418 9.867l-.656-.656-8.02-8.02a4.08 4.08 0 0 0-5.762 0 4.077 4.077 0 0 0-.144 5.605c.022.028.042.058.068.083l6.83 6.831a2.778 2.778 0 0 0 3.924 0 2.778 2.778 0 0 0 0-3.924l-3.91-3.91A.968.968 0 0 0 7.38 7.245l3.91 3.91a.84.84 0 0 1-1.187 1.187L3.348 5.586a2.143 2.143 0 0 1 0-3.026 2.143 2.143 0 0 1 3.026 0l8.019 8.019.657.656a3.478 3.478 0 0 1 0 4.913 3.478 3.478 0 0 1-4.914 0L1.652 7.664A.968.968 0 1 0 .283 9.033l8.485 8.484a5.416 5.416 0 0 0 7.65 0 5.416 5.416 0 0 0 0-7.65z"/></g></g></svg>