<svg xmlns="http://www.w3.org/2000/svg" width="29" height="34" viewBox="0 0 29 34"><g><g><g><path fill="#d70926" d="M2.071 0h17.6L29 9.292v21.78a2.071 2.071 0 0 1-2.071 2.07H2.07A2.071 2.071 0 0 1 0 31.073v-29C0 .926.928 0 2.071 0z"/></g><g><path fill="#960f22" d="M28.97 9.321h-7.22A2.072 2.072 0 0 1 19.68 7.25V.02z"/></g><g><path fill="#fff" d="M10.134 16.57c0-.52-.325-.917-.834-.917h-.826v1.832H9.3c.51 0 .832-.398.834-.916zm1.26.007c0 1.262-.914 2.047-2.022 2.047h-.898v1.418c0 .433-.259.673-.607.673s-.607-.24-.607-.673v-4.856c0-.406.226-.674.631-.674h1.433c1.189 0 2.071.829 2.07 2.065zm4.865 1.055c0-1.113-.523-1.92-1.726-1.92h-.794v3.786h.881c1.125 0 1.639-.824 1.639-1.866zm-1.708-3.12c1.952 0 3.069 1.252 3.07 3.18 0 1.824-1.186 3.006-2.982 3.006H13.12c-.286 0-.687-.156-.687-.652v-4.865c0-.4.278-.669.67-.669zm5.26 1.193v1.811h1.195c.371 0 .557.293.557.588 0 .302-.186.605-.557.605h-1.195v1.333c0 .433-.247.673-.579.673-.333 0-.58-.24-.58-.673v-4.856c0-.354.216-.674.602-.674h1.976c.34 0 .517.294.517.597 0 .293-.17.596-.517.596z"/></g></g></g></svg>