<svg xmlns="http://www.w3.org/2000/svg" width="16" height="12" viewBox="0 0 16 12"><g><g><path fill="#120d13" d="M5.935 2.979l5.087 2.855-5.087 2.838V2.98zm9.789-1.049c-.196-.915-.892-1.59-1.73-1.692C12.01 0 10.002-.002 8.003 0 6.003 0 3.995 0 2.01.238 1.173.34.478 1.015.282 1.93.003 3.234 0 4.658 0 6c0 1.343 0 2.766.279 4.07.195.915.891 1.59 1.729 1.691C3.992 12 6 12.001 7.999 12c2 .001 4.008 0 5.992-.239.837-.1 1.533-.776 1.73-1.692C15.998 8.766 16 7.342 16 6s.001-2.766-.277-4.07z"/></g></g></svg>