<svg xmlns="http://www.w3.org/2000/svg" width="116" height="116" viewBox="0 0 116 116"><g><g><g><g opacity=".1"><path fill="#403941" d="M0 16c0-2 2-4 4-4h96c2 0 4 2 4 4v96c0 2-2 4-4 4H4c-2 0-4-2-4-4z"/></g><g><path fill="#2c6eb9" d="M12 4c0-2 2-4 4-4h96c2 0 4 2 4 4v96c0 2-2 4-4 4H16c-2 0-4-2-4-4z"/></g><g><path d="M40.74 52.328l14.572 17.1L86.25 38.49"/><path fill="none" stroke="#fff" stroke-linecap="round" stroke-linejoin="round" stroke-miterlimit="50" stroke-width="4" d="M40.74 52.328v0l14.572 17.1v0L86.25 38.49v0"/></g></g></g></g></svg>