<svg xmlns="http://www.w3.org/2000/svg" width="173" height="113" viewBox="0 0 173 113"><g><g><g><path fill="#2c6eb9" d="M57 0h104c2 0 4 2 4 4v105c0 2-2 4-4 4H57z"/></g><g><path fill="#c3e4ed" d="M0 4c0-2 2-4 4-4h53v113H4c-2 0-4-2-4-4z"/></g><g><path fill="#fff" d="M7 9a2 2 0 1 1 4 0 2 2 0 0 1-4 0z"/></g><g><path fill="#fff" d="M13 9a2 2 0 1 1 4 0 2 2 0 0 1-4 0z"/></g><g><path fill="#fff" d="M19 9a2 2 0 1 1 4 0 2 2 0 0 1-4 0z"/></g><g><path fill="#fff" d="M101 19c0-1 1-2 2-2h33c1 0 2 1 2 2s-1 2-2 2h-33c-1 0-2-1-2-2z"/></g><g><path fill="#fff" d="M101 55c0-1 1-2 2-2h33c1 0 2 1 2 2s-1 2-2 2h-33c-1 0-2-1-2-2z"/></g><g><path fill="#fff" d="M101 27c0-1 1-2 2-2h33c1 0 2 1 2 2s-1 2-2 2h-33c-1 0-2-1-2-2z"/></g><g><path fill="#fff" d="M101 63c0-1 1-2 2-2h33c1 0 2 1 2 2s-1 2-2 2h-33c-1 0-2-1-2-2z"/></g><g><path fill="#fff" d="M101 35c0-1 1-2 2-2h11c1 0 2 1 2 2s-1 2-2 2h-11c-1 0-2-1-2-2z"/></g><g><path fill="#fff" d="M101 71c0-1 1-2 2-2h11c1 0 2 1 2 2s-1 2-2 2h-11c-1 0-2-1-2-2z"/></g><g><path fill="#fff" d="M69 19c0-1 1-2 2-2h20c1 0 2 1 2 2v20c0 1-1 2-2 2H71c-1 0-2-1-2-2z"/></g><g><path fill="#fff" d="M69 55c0-1 1-2 2-2h20c1 0 2 1 2 2v20c0 1-1 2-2 2H71c-1 0-2-1-2-2z"/></g><g><g opacity=".2"><path fill="#403941" d="M123 58c0-2 2-4 4-4h37c2 0 4 2 4 4v37c0 2-2 4-4 4h-37c-2 0-4-2-4-4z"/></g><g><path fill="#403941" d="M128 53c0-2 2-4 4-4h37c2 0 4 2 4 4v37c0 2-2 4-4 4h-37c-2 0-4-2-4-4z"/></g><g><g><g><g><path fill="#fff" d="M147.19 80.159v.022a3.31 3.31 0 1 0 6.62 0v-.022z"/></g><g><path fill="#fff" d="M159.771 76.375l-2.613-3.719v-4.639c0-3.128-2.3-5.736-5.352-6.324v-1.429c0-.698-.585-1.264-1.306-1.264-.721 0-1.305.566-1.305 1.264v1.43c-3.052.587-5.353 3.195-5.353 6.323v4.64l-2.613 3.718a1.245 1.245 0 0 0-.076 1.317c.229.42.678.681 1.167.681h16.36c.489 0 .938-.262 1.167-.68.229-.42.2-.927-.076-1.318z"/></g></g></g></g></g></g></g></svg>