<svg xmlns="http://www.w3.org/2000/svg" width="173" height="113" viewBox="0 0 173 113"><g><g><path fill="#fff" d="M94.638 64.255v2.223h1.332c.3 0 .553-.108.757-.322a1.11 1.11 0 0 0 .306-.795 1.09 1.09 0 0 0-.306-.789 1.01 1.01 0 0 0-.757-.317zm1.332 3.522h-1.332v.59h2.395v.945h-2.395v1.074h-1.47v-1.074h-.806v-.945h.806v-.59h-.806v-1.3h.806V62.87h2.802c.708 0 1.308.244 1.798.73a2.39 2.39 0 0 1 .735 1.761c0 .687-.243 1.262-.73 1.723-.486.462-1.088.693-1.803.693zm-10.951.687c.258.415.637.623 1.138.623.501 0 .882-.212 1.143-.634.262-.422.392-1.03.392-1.825 0-.802-.13-1.414-.392-1.836-.26-.422-.642-.633-1.143-.633s-.88.21-1.138.633c-.258.422-.387 1.034-.387 1.836s.13 1.414.387 1.836zm1.138 2.072c-.938 0-1.673-.356-2.206-1.068-.534-.713-.8-1.66-.8-2.84 0-1.181.266-2.128.8-2.84.533-.712 1.268-1.068 2.206-1.068.945 0 1.682.356 2.212 1.068.53.712.794 1.659.794 2.84 0 1.18-.265 2.127-.794 2.84-.53.712-1.267 1.068-2.212 1.068zm-7.902-2.072c.258.415.637.623 1.138.623.501 0 .882-.212 1.144-.634.26-.422.391-1.03.391-1.825 0-.802-.13-1.414-.391-1.836-.262-.422-.643-.633-1.144-.633-.5 0-.88.21-1.138.633-.257.422-.386 1.034-.386 1.836s.129 1.414.386 1.836zm1.138 2.072c-.937 0-1.673-.356-2.206-1.068-.533-.713-.8-1.66-.8-2.84 0-1.181.267-2.128.8-2.84.533-.712 1.269-1.068 2.206-1.068.945 0 1.682.356 2.212 1.068.53.712.794 1.659.794 2.84 0 1.18-.265 2.127-.794 2.84-.53.712-1.267 1.068-2.212 1.068zm-6.13-4.928c.723 0 1.331.217 1.825.65.494.433.74 1.036.74 1.809 0 .773-.259 1.377-.778 1.814-.518.437-1.154.655-1.905.655-.609 0-1.145-.136-1.61-.408a2.33 2.33 0 0 1-1.01-1.203l1.267-.74c.186.6.637.902 1.353.902.38 0 .674-.092.886-.274.21-.183.316-.431.316-.746 0-.308-.104-.555-.311-.741-.208-.186-.49-.28-.848-.28h-2.276l.3-4.176h4.263v1.385h-2.888l-.097 1.353zm-5.068-2.738h1.289v7.516h-1.482v-5.948l-1.417.397-.365-1.267z"/></g><g><g><path fill="#2c6eb9" d="M57 0h104c2 0 4 2 4 4v105c0 2-2 4-4 4H57z"/></g><g><path fill="#c3e4ed" d="M0 4c0-2 2-4 4-4h53v113H4c-2 0-4-2-4-4z"/></g><g><path fill="#fff" d="M7 9a2 2 0 1 1 4 0 2 2 0 0 1-4 0z"/></g><g><path fill="#fff" d="M13 9a2 2 0 1 1 4 0 2 2 0 0 1-4 0z"/></g><g><path fill="#fff" d="M19 9a2 2 0 1 1 4 0 2 2 0 0 1-4 0z"/></g><g><path fill="#fff" d="M101 19c0-1 1-2 2-2h33c1 0 2 1 2 2s-1 2-2 2h-33c-1 0-2-1-2-2z"/></g><g><path fill="#fff" d="M101 55c0-1 1-2 2-2h33c1 0 2 1 2 2s-1 2-2 2h-33c-1 0-2-1-2-2z"/></g><g><path fill="#fff" d="M101 27c0-1 1-2 2-2h33c1 0 2 1 2 2s-1 2-2 2h-33c-1 0-2-1-2-2z"/></g><g><path fill="#fff" d="M101 63c0-1 1-2 2-2h33c1 0 2 1 2 2s-1 2-2 2h-33c-1 0-2-1-2-2z"/></g><g><path fill="#fff" d="M101 35c0-1 1-2 2-2h11c1 0 2 1 2 2s-1 2-2 2h-11c-1 0-2-1-2-2z"/></g><g><path fill="#fff" d="M101 71c0-1 1-2 2-2h11c1 0 2 1 2 2s-1 2-2 2h-11c-1 0-2-1-2-2z"/></g><g><path fill="#fff" d="M69 19c0-1 1-2 2-2h20c1 0 2 1 2 2v20c0 1-1 2-2 2H71c-1 0-2-1-2-2z"/></g><g><path fill="#fff" d="M69 55c0-1 1-2 2-2h20c1 0 2 1 2 2v20c0 1-1 2-2 2H71c-1 0-2-1-2-2z"/></g><g><g opacity=".2"><path fill="#403941" d="M123 58c0-2 2-4 4-4h37c2 0 4 2 4 4v37c0 2-2 4-4 4h-37c-2 0-4-2-4-4z"/></g><g><path fill="#403941" d="M128 53c0-2 2-4 4-4h37c2 0 4 2 4 4v37c0 2-2 4-4 4h-37c-2 0-4-2-4-4z"/></g><g><g><g><g><path fill="#fff" d="M147.19 80.159v.022a3.31 3.31 0 1 0 6.62 0v-.022z"/></g><g><path fill="#fff" d="M159.771 76.375l-2.613-3.719v-4.639c0-3.128-2.3-5.736-5.352-6.324v-1.429c0-.698-.585-1.264-1.306-1.264-.721 0-1.305.566-1.305 1.264v1.43c-3.052.587-5.353 3.195-5.353 6.323v4.64l-2.613 3.718a1.245 1.245 0 0 0-.076 1.317c.229.42.678.681 1.167.681h16.36c.489 0 .938-.262 1.167-.68.229-.42.2-.927-.076-1.318z"/></g></g></g></g></g></g></g></svg>