<svg xmlns="http://www.w3.org/2000/svg" width="173" height="113" viewBox="0 0 173 113"><g><g><g><path fill="#2c6eb9" d="M57 0h104c2 0 4 2 4 4v105c0 2-2 4-4 4H57z"/></g><g><path fill="#c3e4ed" d="M0 4c0-2 2-4 4-4h53v113H4c-2 0-4-2-4-4z"/></g><g><path fill="#fff" d="M7 9a2 2 0 1 1 4 0 2 2 0 0 1-4 0z"/></g><g><path fill="#fff" d="M13 9a2 2 0 1 1 4 0 2 2 0 0 1-4 0z"/></g><g><path fill="#fff" d="M19 9a2 2 0 1 1 4 0 2 2 0 0 1-4 0z"/></g><g><path fill="#fff" d="M7 32c0-1 1-2 2-2h33c1 0 2 1 2 2s-1 2-2 2H9c-1 0-2-1-2-2z"/></g><g><path fill="#fff" d="M7 46c0-1 1-2 2-2h33c1 0 2 1 2 2s-1 2-2 2H9c-1 0-2-1-2-2z"/></g><g><path fill="#fff" d="M7 60c0-1 1-2 2-2h23c1 0 2 1 2 2s-1 2-2 2H9c-1 0-2-1-2-2z"/></g><g><g opacity=".2"><path fill="#403941" d="M123 23c0-2 2-4 4-4h37c2 0 4 2 4 4v37c0 2-2 4-4 4h-37c-2 0-4-2-4-4z"/></g><g><path fill="#403941" d="M128 18c0-2 2-4 4-4h37c2 0 4 2 4 4v37c0 2-2 4-4 4h-37c-2 0-4-2-4-4z"/></g><g><path fill="none" stroke="#fff" stroke-linecap="round" stroke-linejoin="round" stroke-miterlimit="50" stroke-width="3" d="M150.5 37v0H141v0h9.5v0-9.5V37h9.5v0h-9.5v9.5z"/></g></g></g></g></svg>