<svg xmlns="http://www.w3.org/2000/svg" width="210" height="35" viewBox="0 0 210 35"><g><g><g><path fill="#d70926" d="M29.237 28.963l-3.99-2.314c-.24-.16-.479-.08-.638.08-1.038 1.197-2.793 1.995-4.947 1.995-.479 0-.958 0-1.357-.08-.558-.08-1.197-.16-1.675-.399-.32-.16-.718-.319-.958-.479h-7.5c1.995 3.91 5.984 6.463 11.41 6.463 4.229 0 7.66-1.675 9.814-4.548.24-.239.16-.558-.16-.718z"/></g><g><path fill="#d70926" d="M14.555 22.5l1.596 1.596-3.112.399c-.32-.798-.479-1.676-.479-2.633 0-1.357.32-2.553.958-3.59.718-1.517 1.994-2.634 3.67-3.033h.24c.478-.08.877-.16 1.356-.16h.32c2.153 0 4.228.958 5.345 3.272l-9.655 3.351c-.399 0-.478.479-.239.798zm15.639-5.027c-1.596-4.627-5.745-7.899-11.09-7.899-7.342 0-12.368 5.346-12.368 12.368 0 1.196.16 2.393.478 3.43l-6.622.878c-.16 0-.16.24 0 .24h20.586c.399 0 .638-.48.399-.798L19.9 23.777l4.867-.24 5.585-.319c.24 0 .48-.24.48-.479v-.718c.079-1.675-.16-3.111-.64-4.548z"/></g><g><path fill="#fff" d="M85.967 33.431L77.589 22.98v10.133c0 .24-.24.479-.479.479h-5.027c-.24 0-.478-.24-.478-.479V1.356c0-.24.239-.479.478-.479h5.027c.24 0 .479.24.479.479v19.15l7.9-10.054c.079-.16.238-.16.398-.16h5.904c.4 0 .638.48.4.798l-8.698 10.692 9.017 11.011c.239.32 0 .798-.4.798h-5.744a.61.61 0 0 1-.4-.16z"/></g><g><path fill="#fff" d="M152.83 33.431l-8.377-10.452v10.133c0 .24-.24.479-.48.479h-5.025c-.24 0-.48-.24-.48-.479V1.356c0-.24.24-.479.48-.479h5.026c.24 0 .479.24.479.479v19.15l7.9-10.054c.079-.16.238-.16.398-.16h5.904c.4 0 .638.48.4.798l-8.698 10.692 8.936 11.011c.24.32 0 .798-.399.798h-5.744c-.08 0-.24-.08-.32-.16z"/></g><g><path fill="#fff" d="M101.686 16.037v9.735c0 2.393 1.675 2.553 4.787 2.393.32 0 .558.24.558.479v4.468c0 .24-.16.479-.478.479-8.14.798-10.852-1.676-10.852-7.9V3.272c0-.24.16-.4.32-.479l5.026-1.915c.32-.08.639.16.639.479v8.857h3.35c.24 0 .4.16.48.399l1.276 4.787c.08.32-.16.638-.479.638z"/></g><g><path fill="#fff" d="M124.505 10.292v5.665c0 .32-.239.48-.558.48-3.032-.16-6.543 1.355-6.543 5.983v10.692c0 .24-.24.479-.478.479h-5.027c-.24 0-.48-.24-.48-.479V10.771c0-.24.24-.479.48-.479h5.027c.239 0 .478.24.478.479v3.51c1.117-2.951 3.83-4.308 6.543-4.467.239-.08.558.16.558.478z"/></g><g><path fill="#fff" d="M128.495 10.213h5.027c.239 0 .478.239.478.478v22.341c0 .24-.24.48-.478.48h-5.027c-.24 0-.48-.24-.48-.48v-22.34c0-.24.24-.48.48-.48zm-1.197-6.463c0-1.995 1.675-3.75 3.67-3.75 2.075 0 3.75 1.755 3.75 3.75 0 1.994-1.675 3.67-3.75 3.67-1.995 0-3.67-1.676-3.67-3.67z"/></g><g><path fill="#fff" d="M34.901.877h5.027c.24 0 .479.24.479.479v31.676c0 .24-.24.48-.479.48h-5.027c-.239 0-.478-.24-.478-.48V1.356c0-.24.16-.479.478-.479z"/></g><g><path fill="#fff" d="M184.906 10.292v5.665c0 .32-.24.48-.559.48-3.032-.16-6.542 1.355-6.542 5.983v10.692c0 .24-.24.479-.48.479H172.3c-.24 0-.478-.24-.478-.479V10.771c0-.24.239-.479.478-.479h5.027c.24 0 .479.24.479.479v3.51c1.117-2.951 3.83-4.308 6.542-4.467.32-.08.559.16.559.478z"/></g><g><path fill="#fff" d="M161.129 30.24a3.95 3.95 0 0 1 3.989-3.99 3.95 3.95 0 0 1 3.99 3.99 3.95 3.95 0 0 1-3.99 3.99c-2.154 0-3.99-1.836-3.99-3.99z"/></g><g><path fill="#fff" d="M209.322 10.771v22.341c0 .24-.24.479-.48.479-.478 0-5.505-1.995-5.505-1.995-1.436 2.075-3.83 2.633-6.941 2.633-4.947 0-8.857-3.43-8.857-9.654V10.77c0-.24.24-.479.479-.479h5.026c.24 0 .48.24.48.48v13.085c0 3.191 1.914 4.787 4.627 4.787 2.952 0 5.107-1.755 5.107-5.825V10.771c0-.24.239-.479.478-.479h5.027c.32-.08.559.16.559.48z"/></g><g><path fill="#fff" d="M49.902 21.942c0-.878 0-1.437.24-2.235v-.16C50.858 16.676 53.013 15 56.204 15c2.155 0 4.23.957 5.266 3.271l-11.649 3.99c.08-.08.08-.24.08-.32zm16.277 6.861l-3.75-2.154c-.24-.08-.479-.08-.638.08-1.038 1.197-2.793 1.995-4.947 1.995-2.234 0-4.07-.639-5.346-2.075l11.01-3.83 5.028-1.755c.239-.08.399-.32.478-.559-.16-1.516-.478-2.952-1.117-4.228-1.835-3.91-5.745-6.703-10.612-6.703-7.34 0-12.367 5.346-12.367 12.368 0 6.941 4.947 12.367 12.766 12.367 4.229 0 7.66-1.676 9.894-4.548.24-.32.16-.638-.399-.958z"/></g></g></g></svg>