<svg xmlns="http://www.w3.org/2000/svg" width="232" height="29" viewBox="0 0 232 29"><g><g><g><path fill="#d70926" d="M25.053 16.725L21.61 14.73c-.206-.137-.412-.069-.55.07-.895 1.032-2.41 1.72-4.267 1.72-.413 0-.826 0-1.17-.069-.482-.069-1.033-.138-1.446-.344-.275-.138-.62-.275-.826-.413h-6.47c1.72 3.372 5.162 5.575 9.843 5.575 3.648 0 6.607-1.445 8.466-3.923.206-.207.137-.482-.138-.62"/></g><g><path fill="#d70926" d="M25.879 6.814c.413 1.239.62 2.478.62 3.923v.62a.444.444 0 0 1-.414.413l-4.818.275-4.198.206 1.445 1.652c.207.276 0 .689-.344.689H.412c-.137 0-.137-.207 0-.207l5.713-.757c-.275-.895-.413-1.927-.413-2.96C5.712 4.611 9.98 0 16.312 0c4.611 0 8.19 2.822 9.567 6.814m-13.49 4.267c-.207-.206-.138-.62.206-.688l8.328-2.89C19.96 5.505 18.17 4.68 16.312 4.68h-.276c-.413 0-.826.07-1.17.138h-.206c-1.446.344-2.547 1.308-3.166 2.615-.55.895-.826 1.996-.826 3.098 0 .826.137 1.583.413 2.271l2.684-.344-1.377-1.377"/></g><g><path fill="#120d13" d="M46.665 20.717h-4.267a.47.47 0 0 1-.482-.481V5.576H36.34v6.744c0 6.195-2.891 8.88-8.053 8.466-.275 0-.413-.206-.413-.482v-3.923c0-.275.275-.482.55-.482 1.79.207 2.754-1.032 2.754-3.923V1.032a.47.47 0 0 1 .481-.481h15.005a.47.47 0 0 1 .482.481v19.204c-.069.275-.276.481-.482.481"/></g><g><path fill="#120d13" d="M111.226 5.575h-5.85v14.66a.47.47 0 0 1-.482.482h-4.268a.47.47 0 0 1-.481-.481V5.576h-5.92a.47.47 0 0 1-.481-.483v-4.06a.47.47 0 0 1 .481-.482h16.932a.47.47 0 0 1 .482.481v4.061c0 .276-.207.482-.413.482"/></g><g><path fill="#120d13" d="M156.584 1.032v19.204a.47.47 0 0 1-.482.481h-4.13a.47.47 0 0 1-.481-.481V9.292L142.13 20.58c-.069.137-.207.137-.344.137h-3.166a.47.47 0 0 1-.482-.481V1.032a.47.47 0 0 1 .482-.481h4.13a.47.47 0 0 1 .481.481v10.944l9.36-11.288c.07-.137.207-.137.345-.137h3.166c.207 0 .482.206.482.481"/></g><g><path fill="#120d13" d="M172.62 20.58l-7.226-9.017v8.741a.444.444 0 0 1-.413.413h-4.336a.444.444 0 0 1-.413-.413V1.032c0-.206.206-.413.413-.413h4.336c.206 0 .413.207.413.413V9.43l6.814-8.672c.069-.138.206-.138.344-.138h5.093c.345 0 .551.413.345.689l-7.503 9.223 7.778 9.498c.206.275 0 .688-.344.688h-4.956a.526.526 0 0 1-.344-.137"/></g><g><path fill="#120d13" d="M86.585 20.58l-7.158-9.017v8.741a.444.444 0 0 1-.413.413H74.61a.444.444 0 0 1-.413-.413V1.032c0-.206.207-.413.413-.413h4.337c.206 0 .412.207.412.413V9.43L86.172.757c.07-.138.207-.138.345-.138h5.093c.344 0 .55.413.344.689l-7.502 9.223 7.777 9.498c.207.275 0 .688-.344.688H86.93a.526.526 0 0 1-.345-.137"/></g><g><path fill="#120d13" d="M200.634 0c5.369 0 9.843 4.612 9.911 10.6 0 6.056-4.473 10.668-9.842 10.668-2.96 0-5.093-1.101-6.539-2.96v9.912a.47.47 0 0 1-.482.481h-4.267a.47.47 0 0 1-.482-.481V.964c0-.345.276-.551.482-.482l4.405 1.72c.138.07.207.207.275.345C195.747.826 197.812 0 200.635 0m-.965 16.312c3.235 0 5.576-2.133 5.576-5.575 0-3.441-2.34-5.713-5.576-5.713-3.166 0-5.575 2.272-5.575 5.644 0 3.373 2.41 5.644 5.575 5.644"/></g><g><path fill="#120d13" d="M230.78.55h-4.542c-.206 0-.413.138-.413.345L221.49 14.11 216.19.895c-.069-.207-.275-.276-.413-.276h-4.474c-.344 0-.55.345-.413.62l7.847 19.272c-.895 2.409-2.271 3.372-4.68 3.441a.47.47 0 0 0-.482.482v3.923a.47.47 0 0 0 .482.482c4.611.069 8.121-2.478 10.186-8.053l7.09-19.547c0-.344-.276-.688-.551-.688"/></g><g><path fill="#120d13" d="M69.378 16.588c.482.275.551.55.345.826-1.928 2.477-4.818 3.923-8.535 3.923-6.745 0-11.013-4.68-11.013-10.669C50.175 4.612 54.511 0 60.844 0c4.267 0 7.64 2.409 9.154 5.782.55 1.1.826 2.34.963 3.647-.068.207-.206.413-.413.482l-4.336 1.514-9.498 3.304c1.101 1.24 2.684 1.79 4.611 1.79 1.859 0 3.373-.688 4.268-1.72.137-.139.344-.139.55-.07l3.235 1.859m-13.972-5.92c0 .07 0 .207-.069.276l10.05-3.442c-.895-1.996-2.685-2.822-4.543-2.822-2.753 0-4.612 1.446-5.231 3.924v.137c-.207.688-.207 1.17-.207 1.927"/></g><g><path fill="#120d13" d="M125.542 0c5.438 0 9.843 4.612 9.912 10.6 0 6.056-4.474 10.668-9.843 10.668-2.96 0-5.093-1.101-6.539-2.96v9.98a.47.47 0 0 1-.481.482h-4.268a.47.47 0 0 1-.482-.482V1.032c0-.344.276-.481.482-.55l4.405 1.72c.138.07.207.207.276.345C120.655.826 122.72 0 125.542 0m-.963 16.312c3.235 0 5.575-2.133 5.575-5.575 0-3.441-2.34-5.713-5.575-5.713-3.166 0-5.575 2.272-5.575 5.644 0 3.373 2.409 5.644 5.575 5.644"/></g><g><path fill="#120d13" d="M179.78 17.758a3.408 3.408 0 0 1 3.44-3.442 3.408 3.408 0 0 1 3.442 3.442 3.408 3.408 0 0 1-3.442 3.441c-1.858 0-3.44-1.514-3.44-3.441"/></g></g></g></svg>