<svg xmlns="http://www.w3.org/2000/svg" width="24" height="24" viewBox="0 0 24 24">
    <g fill="none" fill-rule="evenodd" stroke="" stroke-linecap="round" stroke-linejoin="round" stroke-width="2">
        <path d="M14.714 14.634c.145.861.29 3.072-.008 4.522-.18.881-.48 1.437-.798 1.79-.521.654-1.32.917-1.929.582-.09-.049-.171-.11-.244-.179-.247-.234-.392-.572-.426-.95a1.94 1.94 0 0 1-.008-.207c-.005-.387.03-.9.103-1.59-.26-1.786-1.314-3.501-1.712-4.097l-.505-.02a.392.392 0 0 1-.377-.39v-8.68c0-.607.525-.606.525-.606h9.074c.634 0 1.149.515 1.149 1.15v1.307c.634 0 .693.514.693 1.149v1.307c.634 0 .53.514.53 1.149V12.179c.635 0 .775.513.775 1.148v.159c0 .634-.514 1.148-1.148 1.148h-5.694zM5.725 14V4.92"/>
    </g>
</svg>
