<svg xmlns="http://www.w3.org/2000/svg" width="42" height="42" viewBox="0 0 42 42">
    <g fill="none" fill-rule="evenodd">
        <path stroke="#c7c7c7" d="M37.024 1H4.937A3.937 3.937 0 0 0 1 4.937v32.087a3.937 3.937 0 0 0 3.937 3.937h32.087a3.937 3.937 0 0 0 3.937-3.937V4.937A3.937 3.937 0 0 0 37.024 1"/>
        <path fill="#c7c7c7" d="M23.218 35.973V22.789h4.425l.663-5.138h-5.088v-3.28c0-1.488.413-2.502 2.546-2.502h2.721V7.272c-.47-.063-2.086-.203-3.964-.203-3.923 0-6.609 2.395-6.609 6.792v3.79h-4.436v5.137h4.436v13.184h5.306z"/>
    </g>
</svg>
