<svg xmlns="http://www.w3.org/2000/svg" xmlns:xlink="http://www.w3.org/1999/xlink" width="336" height="42" viewBox="0 0 336 42">
    <defs>
        <path id="a" d="M.714.986h29.822V42H.714z"/>
        <path id="c" d="M.584.165H30.75v30.914H.584z"/>
    </defs>
    <g fill="none" fill-rule="evenodd">
        <path fill="#D70926" d="M36.035 24.287l-4.99-2.88a.649.649 0 0 0-.804.13c-1.337 1.486-3.534 2.525-6.226 2.525-.602 0-1.185-.041-1.747-.12a7.114 7.114 0 0 1-2.118-.521 7.536 7.536 0 0 1-1.241-.603H9.565c2.479 4.869 7.532 8.096 14.333 8.096 5.33 0 9.555-2.055 12.324-5.661a.654.654 0 0 0-.187-.966M37.219 9.943C35.209 4.101 30.016.001 23.313.001 14.12.001 7.856 6.733 7.856 15.458c0 1.518.192 2.975.555 4.348L.139 20.86c-.192.02-.181.302.012.304l25.802.018a.637.637 0 0 0 .504-1.04l-2.138-2.443 6.14-.308 7.027-.406a.651.651 0 0 0 .612-.614 16.91 16.91 0 0 0-.879-6.427M17.62 16.148l2.012 2.015-3.926.494a9.311 9.311 0 0 1-.586-3.269c0-1.649.424-3.192 1.158-4.504.928-1.94 2.52-3.252 4.64-3.797.062-.019.12-.033.18-.05.032-.008.063-.015.094-.024a7.162 7.162 0 0 1 1.71-.209h.033c.125-.004.248-.01.377-.01 2.67 0 5.336 1.215 6.666 4.133l-12.1 4.152a.644.644 0 0 0-.258 1.07"/>
        <path fill="#FFF" d="M67.363 30.093h-6.192a.68.68 0 0 1-.682-.68V8.08h-8.08v9.78c0 9.003-4.215 12.905-11.729 12.296a.689.689 0 0 1-.625-.684V23.82c0-.404.354-.718.753-.67 2.624.306 4.05-1.52 4.05-5.702V1.499a.68.68 0 0 1 .68-.678h21.825a.68.68 0 0 1 .681.678v27.914a.68.68 0 0 1-.68.68M161.167 8.08h-8.454v21.333a.68.68 0 0 1-.681.681h-6.191a.68.68 0 0 1-.681-.68V8.08h-8.571a.681.681 0 0 1-.68-.682V1.5a.68.68 0 0 1 .68-.68h24.578a.68.68 0 0 1 .68.68v5.898a.681.681 0 0 1-.68.682M227.051 1.5v27.914a.68.68 0 0 1-.68.68h-6.017a.68.68 0 0 1-.68-.68V13.467l-13.556 16.381a.68.68 0 0 1-.522.246h-4.62a.68.68 0 0 1-.684-.68V1.5c0-.375.306-.68.683-.68h6.014c.377 0 .682.305.682.68v15.947l13.556-16.38a.675.675 0 0 1 .522-.247h4.621c.375 0 .681.305.681.68M250.359 29.86l-10.467-13.056v12.66a.63.63 0 0 1-.63.63h-6.294a.63.63 0 0 1-.63-.63V1.46c0-.349.284-.629.63-.629h6.295c.346 0 .629.28.629.63v12.241l9.88-12.639a.632.632 0 0 1 .497-.243h7.388c.528 0 .82.616.487 1.025l-10.932 13.437 11.279 13.784a.629.629 0 0 1-.486 1.027h-7.156a.63.63 0 0 1-.49-.234M125.427 29.86L114.96 16.803v12.66a.628.628 0 0 1-.63.63h-6.294a.63.63 0 0 1-.63-.63V1.46c0-.349.284-.629.63-.629h6.295c.348 0 .629.28.629.63v12.241l9.882-12.639a.63.63 0 0 1 .495-.243h7.388c.53 0 .82.616.487 1.025l-10.933 13.437 11.279 13.784a.628.628 0 0 1-.486 1.027h-7.154a.633.633 0 0 1-.491-.234M291.095 0c-4.13 0-7.13 1.24-9.51 3.73a.635.635 0 0 0-.422-.45L274.74.82c-.254-.064-.662.155-.682.658v39.647c0 .375.305.68.682.68h6.19a.682.682 0 0 0 .681-.68V26.641c2.108 2.692 5.211 4.273 9.485 4.273 7.847 0 14.285-6.732 14.285-15.457C305.38 6.732 298.942 0 291.095 0m-1.405 23.713c-4.623 0-8.076-3.334-8.08-8.248v-.016c.004-4.914 3.457-8.248 8.08-8.248 4.684 0 8.137 3.338 8.137 8.256s-3.453 8.256-8.137 8.256"/>
        <g transform="translate(305 -.165)">
            <mask id="b" fill="#fff">
                <use xlink:href="#a"/>
            </mask>
            <path fill="#FFF" d="M29.855.986h-6.616a.68.68 0 0 0-.646.467l-6.344 19.205L8.575 1.414A.685.685 0 0 0 7.94.986H1.394a.68.68 0 0 0-.63.937L12.21 29.908c-1.325 3.474-3.27 4.924-6.82 5.03a.688.688 0 0 0-.675.68v5.692c0 .367.295.678.662.686 6.705.146 11.846-3.571 14.795-11.737L30.495 1.898a.68.68 0 0 0-.64-.912" mask="url(#b)"/>
        </g>
        <g transform="translate(72 -.165)">
            <mask id="d" fill="#fff">
                <use xlink:href="#c"/>
            </mask>
            <path fill="#FFF" d="M28.428 24.257l-4.668-2.69a.614.614 0 0 0-.773.119c-1.336 1.496-3.541 2.543-6.243 2.543-2.754 0-5.123-.808-6.683-2.572l13.815-4.77 6.312-2.181.01-.004a.764.764 0 0 0 .552-.7c-.174-1.884-.633-3.663-1.367-5.278C27.072 3.634 22.2.164 16.04.164 6.85.165.584 6.9.584 15.623c0 8.724 6.207 15.457 16.043 15.457 5.35 0 9.584-2.067 12.354-5.7.226-.298.129-.726-.553-1.122M8.08 15.655c0-1.127.045-1.844.3-2.785h-.007c.01-.045.028-.082.039-.127.004-.016.006-.033.012-.05h.004c.924-3.633 3.64-5.737 7.613-5.737 2.654 0 5.298 1.207 6.635 4.084L8.092 16.077c-.004-.14-.012-.272-.012-.422" mask="url(#d)"/>
        </g>
        <path fill="#FFF" d="M182.011 0c-4.13 0-7.13 1.24-9.51 3.73a.633.633 0 0 0-.422-.45L165.655.82c-.252-.064-.66.155-.683.658v39.647c0 .375.306.68.683.68h6.19a.682.682 0 0 0 .681-.68V26.641c2.108 2.692 5.211 4.273 9.485 4.273 7.847 0 14.285-6.732 14.285-15.457C196.296 6.732 189.858 0 182.011 0m-1.405 23.713c-4.623 0-8.076-3.334-8.08-8.248v-.016c.004-4.914 3.457-8.248 8.08-8.248 4.684 0 8.137 3.338 8.137 8.256s-3.453 8.256-8.137 8.256M260.833 25.821a4.975 4.975 0 1 1 9.951 0 4.97 4.97 0 0 1-4.975 4.977 4.973 4.973 0 0 1-4.976-4.977"/>
    </g>
</svg>
