<svg xmlns="http://www.w3.org/2000/svg" width="42" height="42" viewBox="0 0 42 42">
    <g fill="none" fill-rule="evenodd">
        <path fill-rule="nonzero" stroke="#c7c7c7" d="M37.06 1H4.94A3.941 3.941 0 0 0 1 4.942v32.116A3.941 3.941 0 0 0 4.94 41h32.12A3.941 3.941 0 0 0 41 37.058V4.942A3.941 3.941 0 0 0 37.06 1"/>
        <path fill="#c7c7c7" d="M21.366 12.367a2.766 2.766 0 0 1 2.77 2.758 2.766 2.766 0 0 1-2.77 2.756 2.767 2.767 0 0 1-2.768-2.756 2.767 2.767 0 0 1 2.768-2.758m0 9.417c3.69 0 6.688-2.987 6.688-6.66s-2.999-6.661-6.688-6.661c-3.687 0-6.687 2.988-6.687 6.662 0 3.672 3 6.659 6.687 6.659M24.072 27.217a12.552 12.552 0 0 0 3.883-1.601 1.947 1.947 0 0 0 .615-2.692 1.963 1.963 0 0 0-2.702-.613 8.52 8.52 0 0 1-9.004 0 1.961 1.961 0 0 0-2.7.613 1.947 1.947 0 0 0 .613 2.692 12.57 12.57 0 0 0 3.883 1.601l-3.738 3.724a1.947 1.947 0 0 0 0 2.76 1.961 1.961 0 0 0 2.771 0l3.673-3.66 3.675 3.66a1.964 1.964 0 0 0 2.77 0 1.945 1.945 0 0 0 0-2.76l-3.739-3.724z"/>
    </g>
</svg>
