<svg xmlns="http://www.w3.org/2000/svg" viewBox="0 0 2666.66875 426.667"
     width="96" height="16">
    <g transform="translate(53.33375 0)">
        <polygon style="fill:#dfe0e0;" points="213.333,10.441 279.249,144.017 426.667,165.436 320,269.41 345.173,416.226 213.333,346.91
	81.485,416.226 106.667,269.41 0,165.436 147.409,144.017 "/>
    </g>
    <g transform="translate(586.66825 0)">
        <polygon style="fill:#dfe0e0;" points="213.333,10.441 279.249,144.017 426.667,165.436 320,269.41 345.173,416.226 213.333,346.91
	81.485,416.226 106.667,269.41 0,165.436 147.409,144.017 "/>
    </g>
    <g transform="translate(1120.00275 0)">
        <polygon style="fill:#dfe0e0;" points="213.333,10.441 279.249,144.017 426.667,165.436 320,269.41 345.173,416.226 213.333,346.91
	81.485,416.226 106.667,269.41 0,165.436 147.409,144.017 "/>
    </g>
    <g transform="translate(1653.33725 0)">
        <polygon style="fill:#dfe0e0;" points="213.333,10.441 279.249,144.017 426.667,165.436 320,269.41 345.173,416.226 213.333,346.91
	81.485,416.226 106.667,269.41 0,165.436 147.409,144.017 "/>
    </g>
    <g transform="translate(2186.67175 0)">
        <polygon style="fill:#dfe0e0;" points="213.333,10.441 279.249,144.017 426.667,165.436 320,269.41 345.173,416.226 213.333,346.91
	81.485,416.226 106.667,269.41 0,165.436 147.409,144.017 "/>
    </g>
</svg>
