<svg xmlns="http://www.w3.org/2000/svg" xmlns:xlink="http://www.w3.org/1999/xlink" width="16" height="16" viewBox="0 0 16 16">
    <defs>
        <path id="a" d="M7.962 6.25a1.74 1.74 0 0 0-1.73-1.75A1.74 1.74 0 0 0 4.5 6.25c0 .966.776 1.748 1.731 1.748A1.74 1.74 0 0 0 7.962 6.25zm1 0a2.74 2.74 0 0 1-2.73 2.748A2.74 2.74 0 0 1 3.5 6.25 2.74 2.74 0 0 1 6.231 3.5a2.74 2.74 0 0 1 2.731 2.75zM6.206 1C3.326 1 1 3.256 1 6.028c0 .549.082 1.12.239 1.71.361 1.361 1.104 2.789 2.115 4.233a24.064 24.064 0 0 0 2.31 2.808.776.776 0 0 0 1.085 0 21.526 21.526 0 0 0 .73-.794 24.064 24.064 0 0 0 1.58-2.014c1.01-1.444 1.754-2.872 2.115-4.233a6.67 6.67 0 0 0 .238-1.71C11.412 3.256 9.087 1 6.206 1zm0-1c3.422 0 6.206 2.693 6.206 6.028a7.66 7.66 0 0 1-.272 1.966c-.382 1.441-1.149 2.96-2.262 4.55a25.04 25.04 0 0 1-2.194 2.704c-.092.099-.172.182-.227.236a1.776 1.776 0 0 1-2.502 0 22.538 22.538 0 0 1-.774-.842 25.04 25.04 0 0 1-1.646-2.097C1.42 10.954.655 9.435.272 7.994A7.66 7.66 0 0 1 0 6.028C0 2.693 2.784 0 6.206 0z"/>
    </defs>
    <g fill="none" fill-rule="evenodd" transform="translate(2)">
        <mask id="b" fill="#fff">
            <use xlink:href="#a"/>
        </mask>
        <use fill="#979797" fill-rule="nonzero" xlink:href="#a"/>
    </g>
</svg>
