<svg xmlns="http://www.w3.org/2000/svg" xmlns:xlink="http://www.w3.org/1999/xlink" width="259" height="241" viewBox="0 0 259 241">
    <defs>
        <path id="a" d="M0 3.535v151.197a3 3 0 0 0 2.628 2.977l71 8.87A3 3 0 0 0 77 163.602V15.244a3 3 0 0 0-2.512-2.96L3.488.575A3 3 0 0 0 0 3.535z"/>
        <path id="c" d="M49 11.796v2.524c-3.166 0-6.55-.544-10.277-1.58-3.565-.991-7.062-2.29-12.136-4.402C14.243 3.201 12.354 2.524 8.772 2.524c-4.375 0-6.439 2.892-6.439 10.534 0 26.61 20.84 56.881 35.143 50.577l.88 2.338C22.028 73.17 0 41.17 0 13.058 0 4.144 2.957 0 8.772 0c4.022 0 5.86.659 18.653 5.982 4.997 2.08 8.421 3.352 11.88 4.313 3.548.987 6.745 1.501 9.695 1.501z"/>
    </defs>
    <g fill="none" fill-rule="evenodd">
        <path fill="#BBE5EE" fill-rule="nonzero" d="M147.413 95.173l95.443-31.505a5 5 0 0 1 6.567 4.748v110.197a5 5 0 0 1-2.5 4.33l-98.755 57.017a5 5 0 0 1-5.244-.15L2.256 147.48A5 5 0 0 1 0 143.301V33.944a5 5 0 0 1 7.163-4.508l136.52 65.497a5 5 0 0 0 3.73.24z"/>
        <path fill="#BBE5EE" fill-rule="nonzero" d="M182 42.377v151.196a3 3 0 0 0 2.628 2.977l71 8.87a3 3 0 0 0 3.372-2.977V54.085a3 3 0 0 0-2.512-2.96l-71-11.708a3 3 0 0 0-3.488 2.96z"/>
        <path fill="#BBE5EE" fill-rule="nonzero" d="M180.5 56.676v141.512a5 5 0 0 1-7.518 4.32l-119.5-69.67a5 5 0 0 1-2.482-4.32V5A5 5 0 0 1 57.985.41l119.5 51.676a5 5 0 0 1 3.015 4.59z" opacity=".6"/>
        <path fill="#BBE5EE" fill-rule="nonzero" d="M25 40.377v151.196a3 3 0 0 0 2.628 2.977l71 8.87a3 3 0 0 0 3.372-2.977V52.085a3 3 0 0 0-2.512-2.96l-71-11.708A3 3 0 0 0 25 40.377z"/>
        <path fill="#FFF" fill-rule="nonzero" d="M26 36.377v151.196a3 3 0 0 0 2.628 2.977l71 8.87a3 3 0 0 0 3.372-2.977V48.085a3 3 0 0 0-2.512-2.96l-71-11.708A3 3 0 0 0 26 36.377z"/>
        <g transform="translate(180 32.842)">
            <mask id="b" fill="#fff">
                <use xlink:href="#a"/>
            </mask>
            <use fill="#FFF" fill-rule="nonzero" xlink:href="#a"/>
            <path fill="#E5E8EE" d="M36.442 183.688a6.978 6.978 0 0 1-2.05-4.95v-128l10-25 10 25v128a7 7 0 0 1-7 7h-6c-1.289 0-2.939-.684-4.95-2.05z" mask="url(#b)" transform="rotate(-171 44.392 105.738)"/>
        </g>
        <path fill="#E5E8EE" fill-rule="nonzero" d="M180 36.377v151.196a3 3 0 0 1-2.628 2.977l-71 8.87a3 3 0 0 1-3.372-2.977V48.085a3 3 0 0 1 2.512-2.96l71-11.708a3 3 0 0 1 3.488 2.96z"/>
        <path stroke="#B2BAC6" stroke-width="2" d="M47.57 62.14L103 68.5l77-11 60.34 10.29a5 5 0 0 1 4.16 4.93v100.509a5 5 0 0 1-5.712 4.949L178.5 169.5l-75.5 12-56.73-8.37a5 5 0 0 1-4.27-4.946V67.107a5 5 0 0 1 5.57-4.968z" opacity=".6"/>
        <path stroke="#B2BAC6" stroke-width="2" d="M52.533 69.093L103 74.5l41-6.013V114.5l4.085-.5V67.916L180 63.5l54.342 9.29a5 5 0 0 1 4.158 4.928v88.524a5 5 0 0 1-5.701 4.95L178.5 163.5l-30.415 5L148 138l-4 .5v30.698l-41 6.302-51.707-7.387a5 5 0 0 1-4.293-4.95V74.065a5 5 0 0 1 5.533-4.971z" opacity=".6"/>
        <g fill-rule="nonzero">
            <path fill="#232835" d="M210.681 22.805l-41.374 194.651-30.323-6.445 41.374-194.652 30.323 6.446zm-17.562 8.072a2.83 2.83 0 0 0 3.344-2.18 2.83 2.83 0 0 0-2.169-3.35 2.83 2.83 0 0 0-3.344 2.179 2.83 2.83 0 0 0 2.169 3.35z"/>
            <path fill="#2068BC" d="M206.27 22.072l-41.375 194.65-30.323-6.444 41.375-194.652 30.322 6.446zm-17.563 8.072a2.83 2.83 0 0 0 3.345-2.18 2.83 2.83 0 0 0-2.17-3.35 2.83 2.83 0 0 0-3.344 2.179 2.83 2.83 0 0 0 2.17 3.35z"/>
            <path fill="#232835" d="M171.888 33.64l-.402 1.894 21.52 4.574.402-1.893-21.52-4.574zm-1.744 8.206l-.402 1.894 13.042 2.772.402-1.894-13.042-2.772zm-1.744 8.205l-.402 1.894 13.042 2.772.402-1.894-13.042-2.772zm-1.744 8.206l-.402 1.893 13.042 2.772.402-1.893-13.042-2.772zm-1.744 8.205l-.402 1.894 21.519 4.574.402-1.894-21.519-4.574zm-1.744 8.205l-.403 1.894 13.042 2.772.403-1.893-13.042-2.773zm-1.744 8.206l-.403 1.893 13.042 2.772.403-1.893-13.042-2.772zm-1.744 8.205l-.403 1.894 13.042 2.772.403-1.894-13.042-2.772zm-1.879 8.837l-.402 1.893 21.52 4.574.402-1.893-21.52-4.574zm-1.744 8.205l-.402 1.894 13.042 2.772.402-1.894-13.042-2.772zm-1.744 8.205l-.402 1.894 13.042 2.772.402-1.893-13.042-2.773zm-1.744 8.206l-.402 1.893 13.042 2.773.402-1.894-13.042-2.772zm-1.744 8.205l-.402 1.894 21.519 4.574.402-1.894-21.519-4.574zm-1.744 8.206l-.403 1.893 13.042 2.772.403-1.893-13.042-2.772zm-1.744 8.205l-.403 1.893 13.042 2.773.403-1.894-13.042-2.772zm-1.744 8.205l-.403 1.894 13.042 2.772.403-1.894-13.042-2.772zm-1.879 8.837l-.402 1.893 21.52 4.574.402-1.893-21.52-4.574zm-1.744 8.205l-.402 1.894 13.042 2.772.402-1.894-13.042-2.772zm-1.744 8.206l-.402 1.893 13.042 2.772.402-1.893-13.042-2.772zm-1.744 8.205l-.402 1.893 13.042 2.773.402-1.894-13.042-2.772zm-1.744 8.205l-.402 1.894 21.519 4.574.402-1.894-21.519-4.574z"/>
        </g>
        <path fill="#C2CAD5" d="M179.31 178.325l7.417 2.997 11.182-11.66 3.746-9.272-18.544-7.492-3.746 9.272zM239.116 67.672l-18.544-7.492 3.746-9.272 18.544 7.492z"/>
        <path fill="#D70926" fill-rule="nonzero" d="M220.572 60.18l-41.207 101.99c1.124-2.782 4.191-3.7 6.51-2.763 2.317.936 3.333 2.426 3.699 4.19 1.025-1.203 3.441-1.844 5.76-.908 2.78 1.124 3.699 4.191 2.762 6.51l41.207-101.99-18.544-7.493-.187.464z"/>
        <path fill="#232835" d="M186.727 181.322l-7.455 7.773.037-10.77z"/>
        <path fill="#D70926" d="M242.862 58.4l-18.544-7.492 2.997-7.418a7 7 0 0 1 9.112-3.868l5.563 2.248a7 7 0 0 1 3.868 9.112l-2.996 7.418z"/>
        <path fill="#9A1628" fill-rule="nonzero" d="M229.844 63.926l-40.27 99.672c1.489-1.016 3.441-1.845 5.76-.909 2.78 1.124 3.699 4.191 2.762 6.51l41.207-101.99-9.272-3.747-.187.464z"/>
        <path fill="#9FA7B1" d="M239.116 67.672l-9.272-3.746 3.746-9.272 9.272 3.746z"/>
        <path fill="#9A1628" d="M242.862 58.4l-9.272-3.746 5.619-13.908 2.781 1.124a7 7 0 0 1 3.868 9.112l-2.996 7.418z"/>
        <path stroke="#BBE5EE" stroke-linecap="round" stroke-linejoin="round" stroke-width="2" d="M25.5 205.5l46 5.5"/>
        <path fill="#BBE5EE" fill-rule="nonzero" d="M34.851 203.442l6.641.58-1.85 5.862-6.642-.581z"/>
        <g fill-rule="nonzero" stroke="#D70926" stroke-linecap="round" stroke-linejoin="round">
            <path stroke-width="3" d="M56 105c6.627 0 12-5.373 12-12s-5.373-12-12-12v24z"/>
            <g stroke-width="2">
                <path d="M68 79.5v25.619M56.5 93h22.88"/>
            </g>
        </g>
        <g fill-rule="nonzero" stroke="#D70926" stroke-linecap="round" stroke-linejoin="round">
            <path stroke-width="3" d="M56 156c6.627 0 12-5.373 12-12s-5.373-12-12-12v24z"/>
            <g stroke-width="2">
                <path d="M68 130.5v25.619M56.5 144h22.88"/>
            </g>
        </g>
        <circle cx="121" cy="120" r="13" stroke="#D70926" stroke-linecap="round" stroke-linejoin="round" stroke-width="3"/>
        <g fill-rule="nonzero" stroke="#D70926" stroke-linecap="round" stroke-linejoin="round" stroke-width="2">
            <path d="M109.265 109.265l22.14 22.14M109.751 132.113l22.245-22.245"/>
        </g>
        <path stroke="#D70926" stroke-linecap="round" stroke-linejoin="round" stroke-width="2" d="M121.5 108V81M121.5 73v-3M121.5 61v-1"/>
        <g transform="translate(6 80)">
            <mask id="d" fill="#fff">
                <use xlink:href="#c"/>
            </mask>
            <use fill="#D70926" fill-rule="nonzero" xlink:href="#c"/>
            <path fill="#FFF" fill-rule="nonzero" d="M20 16.377v151.196a3 3 0 0 0 2.628 2.977l71 8.87A3 3 0 0 0 97 176.443V28.085a3 3 0 0 0-2.512-2.96l-71-11.708A3 3 0 0 0 20 16.377z" mask="url(#d)"/>
            <path stroke="#B2BAC6" stroke-width="2" d="M41.57 32.14L97 38.5l77-11 60.34 10.29a5 5 0 0 1 4.16 4.93v50.509a5 5 0 0 1-5.712 4.949L172.5 89.5l-75.5 12-56.73-8.37A5 5 0 0 1 36 88.184V37.107a5 5 0 0 1 5.57-4.968z" mask="url(#d)" opacity=".6"/>
        </g>
        <g fill-rule="nonzero" stroke="#FFF" stroke-linecap="round" stroke-linejoin="round">
            <path d="M186.242 207.986c3.117-1.038 7.305-2.49 12.564-4.358"/>
            <path stroke-width="2" d="M179.09 204.19c5.6-.053 12.874-1.847 21.82-5.38"/>
        </g>
    </g>
</svg>
