<svg xmlns="http://www.w3.org/2000/svg" width="257" height="230" viewBox="0 0 257 230">
    <g fill="none" fill-rule="nonzero">
        <path fill="#BBE5EE" d="M239.5 128.167v80.449a5 5 0 0 1-6.37 4.808l-105.5-30.067a5 5 0 0 1-3.63-4.809V9.874a5 5 0 0 1 8.72-3.34L237.71 123.49a7 7 0 0 1 1.79 4.676z" opacity=".6"/>
        <path fill="#BBE5EE" d="M149.923 116.432V79.368a5 5 0 0 1 8.811-3.236l97 114.224a5 5 0 0 1 1.189 3.237v29.484a5 5 0 0 1-6.346 4.815l-94.308-26.362a5 5 0 0 0-6.346 4.815v8.926a5 5 0 0 1-6.171 4.861L29.829 192.679A5 5 0 0 1 26 187.818V22a5 5 0 0 1 8.444-3.625l107.035 101.682a5 5 0 0 0 8.444-3.625z"/>
        <path fill="#FFF" d="M76.022 86.296l3.026 5.94-6.842 1.99-3.027-5.94zM104.642 55.366l1.311-.069a3.3 3.3 0 0 1 3.372 2.487l5.805 22.955 2.64-.138a2.479 2.479 0 0 1 .26 4.95l-2.64.139 4.946 94.377a3.3 3.3 0 0 1-.008.461l-2.941 33.485a3.3 3.3 0 0 1-3.115 3.006l-1.155.06-2.251.119a3.3 3.3 0 0 1-3.412-2.665l-6.425-32.993a3.3 3.3 0 0 1-.057-.458l-4.946-94.377-2.64.138a2.479 2.479 0 0 1-.259-4.95l2.64-.139 3.373-23.437a3.3 3.3 0 0 1 3.094-2.825l2.408-.126z"/>
        <path stroke="#D70926" stroke-width="4.4" d="M109.752 197.846c1.126 8.015-25.621 15.274-39.978 3.394-12.513-10.355-8.392-24.407-10.843-57.435C55.502 97.6 52.77 72.363 36.46 78.548c-16.31 6.186 3.328 47.343 28.824 71.026 25.495 23.684 25.447 50.945 11.861 52.855-13.586 1.909-23.327-20.083-14.786-65.78 8.54-45.698-5.416-54.305-17.685-50.912-12.269 3.393 1.778 48.14 22.298 75.849 12.142 16.396 17.254 40.054 9.853 46.45-6.918 5.978-18.63 1.506-23.04-6.218"/>
        <g transform="scale(-1 1) rotate(3 -52.851 -2178.566)">
            <rect width="3.293" height="30.845" x="13.171" fill="#D8D8D8" rx="1.646"/>
            <rect width="5.488" height="30.845" x="12.073" y="18.727" fill="#D70926" rx="2.2"/>
            <path fill="#2068BC" d="M15.366 38.556h1.313a3.3 3.3 0 0 1 3.237 2.66l4.596 23.228h2.644a2.479 2.479 0 1 1 0 4.957h-2.644v94.507a3.3 3.3 0 0 1-.032.46l-4.69 33.284a3.3 3.3 0 0 1-3.267 2.84h-3.411a3.3 3.3 0 0 1-3.268-2.84l-4.69-33.284a3.3 3.3 0 0 1-.032-.46V69.4H2.479a2.479 2.479 0 1 1 0-4.957h2.643l4.596-23.228a3.3 3.3 0 0 1 3.237-2.66h2.41z"/>
            <rect width="14.268" height="87.027" x="7.683" y="71.604" fill="#232835" rx="2.2"/>
            <ellipse cx="17.012" cy="79.866" fill="#D70926" rx="2.744" ry="2.754"/>
            <ellipse cx="17.012" cy="90.882" fill="#D70926" rx="2.744" ry="2.754"/>
            <ellipse cx="17.012" cy="101.898" fill="#D70926" rx="2.744" ry="2.754"/>
        </g>
        <g transform="scale(-1 1) rotate(22 -187.347 3.613)">
            <rect width="2.195" height="30.845" x="10.976" fill="#D8D8D8" rx="1.098"/>
            <path fill="#232835" d="M14.373 16.166l1.725 27.663 6.74 2.316a1.938 1.938 0 0 1 1.308 1.833c0 .833-.513 1.58-1.29 1.88l-4.459 1.716-2.247 86.307-4.077 1.107-4.076-1.107-2.248-86.307-4.458-1.716A2.014 2.014 0 0 1 0 47.978c0-.827.525-1.564 1.308-1.833l6.74-2.316 1.726-27.663a3.93 3.93 0 0 1 4.599 0z"/>
        </g>
        <g transform="scale(-1 1) rotate(-8 2.628 1775.728)">
            <path fill="#232835" d="M46.199 4.113h8.087a2.06 2.06 0 0 0 1.455-.602l2.916-2.91A2.06 2.06 0 0 1 60.112 0H74.72l3.608 4.113c6.577 0 12.227 4.665 13.458 11.112l4.062 21.28 4.638 4.113v45.76l-3.607 3.598.987 105.888a10.273 10.273 0 0 1-3.434 7.759l-13.17 11.757a10.32 10.32 0 0 1-6.872 2.62H26.096a10.32 10.32 0 0 1-6.872-2.62l-13.17-11.757a10.273 10.273 0 0 1-3.434-7.76l.987-105.887L0 86.377v-45.76l4.638-4.112L8.7 15.225C9.931 8.778 15.58 4.113 22.158 4.113L25.765 0h14.608a2.06 2.06 0 0 1 1.455.602l2.916 2.91c.386.385.91.601 1.455.601z"/>
            <rect width="4" height="48" x="90.01" y="139.861" fill="#7F7F7F" rx="2"/>
            <rect width="7" height="7" x="87" y="193" fill="#7F7F7F" rx="3.5"/>
            <path fill="#D51B28" d="M0 86.377v-45.76l15.974-14.746L20.96 4.165a13.83 13.83 0 0 1 1.198-.052L25.765 0h14.606c.546 0 1.07.217 1.457.602l2.915 2.909c.387.386.911.602 1.458.602h8.083c.547 0 1.07-.216 1.457-.602L58.656.602C59.043.217 59.567 0 60.114 0h14.605l3.12 3.558 5.125 22.313 17.52 14.747v45.76l-13.913 13.53-2.576 86.378L68.02 198.11H30.918l-15.974-11.825-2.577-86.378L0 86.378z"/>
            <rect width="7" height="4" x="58.741" y="18.702" fill="#FFF" rx="2"/>
            <rect width="7" height="4" x="45.741" y="18.702" fill="#FFF" rx="2"/>
            <rect width="7" height="4" x="32.589" y="18.873" fill="#FFF" rx="2"/>
            <path fill="#646C78" d="M13.398 31.877h73.173v61.698H13.398z"/>
            <rect width="60.806" height="45.245" x="19.582" y="40.104" fill="#BBE5EE" rx="2.06"/>
            <rect width="2" height="12" x="58.832" y="55.408" fill="#646C78" rx="1"/>
            <rect width="4" height="22" x="52.832" y="50.408" fill="#646C78" rx="2"/>
            <rect width="2" height="10" x="47.832" y="56.408" fill="#646C78" rx="1"/>
            <rect width="4" height="16" x="40.832" y="53.408" fill="#646C78" rx="2"/>
            <path fill="#232835" d="M22.176 106H78.63a2.06 2.06 0 0 1 2.057 2.172l-2.866 52.437a2.06 2.06 0 0 1-2.057 1.948H25.042a2.06 2.06 0 0 1-2.057-1.948l-2.866-52.437A2.06 2.06 0 0 1 22.176 106z"/>
            <path fill="#7F7F7F" d="M64.812 118.826v5.766c0 .456-.151.9-.431 1.26l-3.089 3.98c-.39.502-.992.797-1.63.797H43.137a2.063 2.063 0 0 1-1.632-.8l-3.075-3.978a2.054 2.054 0 0 1-.429-1.256v-5.771c0-.47.161-.926.457-1.292l3.047-3.767a2.063 2.063 0 0 1 1.604-.765H59.69c.621 0 1.21.28 1.601.762l3.06 3.77c.298.366.46.823.46 1.294z"/>
        </g>
        <path stroke="#FFF" stroke-linecap="round" stroke-linejoin="round" stroke-width="2" d="M58.5 74.622c11.22 1.683 20.195 19.074 17.39 35.903"/>
        <path stroke="#FFF" stroke-linecap="round" stroke-linejoin="round" d="M75 78c6.17 5.049 8.976 16.269 8.976 21.879"/>
    </g>
</svg>
